<?xml version="1.0" encoding="utf-8"?>
<!DOCTYPE svg PUBLIC "-//W3C//DTD SVG 1.0//EN" "http://www.w3.org/TR/2001/REC-SVG-20010904/DTD/svg10.dtd">
<svg version="1.0" xmlns="http://www.w3.org/2000/svg" width="1024px" height="1024px" viewBox="0 0 1024 1024" preserveAspectRatio="xMidYMid meet">
 <g fill="#6e281c">
  <path d="M504 901.4 c0 -0.5 -2.8 -0.7 -6.2 -0.5 -8.8 0.4 -28.9 -0.9 -28.3 -2 0.3 -0.4 -1.8 -0.6 -4.7 -0.3 -3.8 0.3 -4.7 0.2 -3.3 -0.5 1.9 -0.9 1.8 -1 -0.5 -1.2 -1.4 -0.2 -5.6 -0.3 -9.5 -0.4 -7.4 -0.1 -14.8 -1.2 -29.8 -4.7 -7.1 -1.6 -8.8 -2.3 -7.2 -3 1.6 -0.6 1.3 -0.7 -1 -0.4 -4.1 0.6 -8.6 -0.4 -7.8 -1.7 0.3 -0.6 0.1 -0.7 -0.5 -0.3 -0.6 0.4 -2.3 0.4 -3.7 0 -1.8 -0.4 -2.3 -0.9 -1.5 -1.4 0.7 -0.4 -0.5 -0.7 -2.6 -0.7 -2.2 0 -5.5 -0.7 -7.4 -1.6 -1.9 -1 -2.6 -1.5 -1.5 -1.1 3.9 1.1 8 1.7 7.4 1 -0.8 -0.9 -4.6 -1.7 -8.9 -2 -5 -0.2 -11.2 -2.5 -10.4 -3.8 0.4 -0.7 0.2 -0.8 -0.5 -0.4 -1.5 1 -8.1 -1.2 -8.1 -2.7 0 -0.8 0.4 -0.7 1.2 0.1 0.7 0.7 1.7 1.2 2.2 1.2 0.6 0 0 -0.7 -1.2 -1.6 -1.2 -0.8 -3.2 -1.4 -4.5 -1.3 -1.2 0.1 -3.5 -0.1 -5 -0.6 -2.2 -0.6 -2.6 -1 -1.5 -1.7 1 -0.8 0.9 -0.8 -0.5 -0.4 -2.1 0.7 -7 -1.1 -6.3 -2.3 0.6 -0.9 -4.4 -3.5 -5.2 -2.6 -0.3 0.3 0.1 0.5 0.8 0.5 0.7 0 1.1 0.3 0.8 0.6 -0.8 0.7 -15.1 -6.5 -16.1 -8.2 -0.4 -0.7 -1.3 -1.1 -2 -0.8 -1.7 0.6 -27.3 -14.2 -26.9 -15.6 0.1 -0.7 -0.2 -0.9 -0.7 -0.5 -0.9 0.5 -12.1 -6.1 -12.1 -7.2 0 -0.2 0.5 -0.1 1.2 0.3 0.7 0.5 0.8 0.3 0.4 -0.5 -0.5 -0.7 -1 -1 -1.3 -0.7 -0.8 0.8 -4.4 -1.4 -3.8 -2.3 0.2 -0.5 -0.3 -0.8 -1.3 -0.7 -0.9 0 -1.6 -0.5 -1.4 -1.2 0.1 -0.8 -0.2 -1.1 -0.8 -0.7 -1.3 0.8 -6.2 -3 -5.2 -4 0.4 -0.3 0.2 -0.5 -0.4 -0.3 -1.9 0.5 -7.6 -4.2 -7 -5.8 0.3 -0.8 -0.1 -1.4 -1 -1.4 -0.9 0 -1.2 0.5 -0.8 1.2 0.5 0.7 -1.3 -0.5 -3.9 -2.6 -2.6 -2.1 -4.7 -4.5 -4.7 -5.2 0 -0.8 -0.5 -1.4 -1.1 -1.4 -0.5 0 -0.7 0.6 -0.3 1.3 0.5 0.6 -1.2 -0.5 -3.6 -2.6 -2.5 -2.1 -4.5 -4.4 -4.5 -5 0 -0.7 -0.5 -1.2 -1.1 -1.2 -0.7 0 -4.9 -3.5 -9.5 -7.9 -4.6 -4.3 -7.7 -7.6 -6.9 -7.2 0.8 0.4 0.7 0.1 -0.4 -0.6 -4.3 -2.9 -6.8 -5.7 -6 -6.9 0.4 -0.7 0.3 -0.9 -0.3 -0.6 -1.3 0.8 -7.6 -5.7 -6.6 -6.8 0.5 -0.4 0.3 -0.5 -0.3 -0.2 -0.6 0.3 -3.1 -1.7 -5.5 -4.5 -7 -8.2 -7.9 -9.5 -7.1 -10.2 0.4 -0.4 0.1 -0.6 -0.7 -0.4 -0.7 0.2 -1.6 -0.3 -1.9 -1.1 -0.2 -0.8 0 -1.1 0.5 -0.8 0.5 0.3 1 0 1 -0.8 0 -1.1 -0.4 -1.2 -1.3 -0.4 -0.9 0.7 -1.8 0.1 -3.5 -2.3 -1.3 -1.8 -2.3 -3.9 -2.1 -4.6 0.2 -0.7 -0.2 -1.1 -0.7 -1 -1.6 0.5 -12.1 -14.6 -10.7 -15.4 0.7 -0.5 0.5 -0.8 -0.6 -0.8 -2 0 -4.3 -3.7 -4 -6.1 0.2 -1 -0.6 -1.9 -1.9 -2.2 -1.5 -0.4 -2 -1.1 -1.5 -2.2 0.3 -0.9 0.2 -1.4 -0.3 -1.1 -1.2 0.8 -5.3 -6.3 -4.5 -7.6 0.4 -0.6 0.2 -0.8 -0.4 -0.5 -1.4 0.9 -8.3 -11.8 -7.6 -14 0.4 -1.3 0.3 -1.5 -0.4 -0.5 -0.7 1 -1.2 0.5 -2.3 -2 -0.7 -1.8 -1.2 -3.9 -1.1 -4.7 0.2 -0.7 -0.1 -1 -0.6 -0.7 -1.2 0.7 -2.4 -2.2 -1.5 -3.6 0.3 -0.6 0.1 -0.8 -0.4 -0.5 -1.3 0.8 -2.6 -2 -1.6 -3.5 0.3 -0.6 0.1 -0.8 -0.4 -0.5 -0.6 0.4 -2.2 -1.9 -3.7 -5.4 -2.9 -6.8 -3.1 -7.3 -1.4 -6.3 0.7 0.4 0.8 0.3 0.4 -0.5 -0.4 -0.6 -1.1 -0.9 -1.5 -0.6 -1.9 1.1 -18.8 -47.2 -17.6 -50.3 0.3 -0.7 0.1 -1.1 -0.4 -0.8 -1.1 0.7 -3.6 -9.8 -2.7 -11.3 0.4 -0.6 0.1 -1.1 -0.6 -1.1 -1.1 0 -1 -0.2 0 -0.9 1.1 -0.7 1.1 -0.9 -0.1 -1.4 -1.5 -0.6 -5.3 -17 -4.2 -18.6 0.3 -0.5 0.1 -1.1 -0.4 -1.3 -1 -0.3 -5.1 -30.3 -5.1 -37.4 0 -3.3 0.3 -4.3 1.3 -3.9 0.6 0.4 0.5 0.1 -0.3 -0.7 -0.8 -0.7 -1.6 -2.2 -1.7 -3.3 -0.6 -5.3 -0.3 -49.7 0.3 -50.7 0.4 -0.6 0.7 -3.5 0.5 -6.2 -0.3 -8.5 2.6 -28.9 4.4 -29.8 1.1 -0.7 1.2 -1.3 0.3 -2.7 -0.7 -1.1 -0.8 -2.6 -0.3 -3.7 0.5 -1.1 0.7 -2.3 0.6 -2.8 -0.4 -1.5 4.2 -22.1 5 -22.4 0.4 -0.2 0.4 -1.2 0.1 -2.4 -0.3 -1.4 -0.1 -1.9 0.6 -1.4 0.8 0.4 1 0.2 0.6 -0.8 -0.6 -1.7 4.5 -20.8 5.5 -20.2 0.3 0.2 0.7 -1 0.7 -2.7 0.1 -1.6 0.8 -3.5 1.6 -4.1 0.8 -0.6 1.7 -2 2.1 -3.1 l0.7 -2 -1.6 2 c-1.8 2.2 -1.8 2.1 1.6 -7.2 1.2 -3.4 2.5 -6.2 2.9 -6.1 1.7 0.2 2.5 -0.3 1.4 -1 -1 -0.6 -0.9 -1.7 0.4 -5 1.2 -3.1 1.9 -3.9 2.5 -3 0.6 0.9 0.7 0.6 0.3 -0.8 -0.6 -2.4 1.3 -7.6 2.6 -6.8 0.5 0.3 0.6 -0.2 0.3 -1 -0.3 -0.8 0.1 -2.7 1 -4.3 0.8 -1.5 1.5 -2.2 1.6 -1.4 0 1.1 0.4 0.9 1.5 -0.5 1.6 -2.2 2 -4.8 0.5 -3.9 -0.6 0.4 -0.5 -0.5 0.2 -1.9 0.6 -1.4 1.7 -2.6 2.5 -2.6 0.7 0 1.3 -0.5 1.3 -1.1 0 -0.5 -0.5 -0.7 -1 -0.4 -0.6 0.4 -0.3 -1 0.7 -2.9 0.9 -2.1 2 -3.1 2.3 -2.5 0.5 0.7 1 0.5 1.4 -0.6 0.8 -2.3 0.8 -2.7 -0.4 -2 -0.6 0.3 -0.7 -0.1 -0.4 -0.9 0.3 -0.9 1.1 -1.3 1.7 -0.9 0.6 0.3 0.7 0.1 0.3 -0.5 -0.9 -1.5 1.8 -5.5 2.9 -4.4 0.5 0.4 0.5 0.2 0.1 -0.5 -1 -1.8 2.1 -7.3 4.2 -7.4 1 0 1.2 -0.3 0.4 -0.6 -0.9 -0.3 -0.7 -1.5 0.9 -4.3 1.2 -2.2 2.5 -3.7 2.9 -3.5 0.4 0.2 0.7 -0.1 0.7 -0.8 0 -2.4 9.3 -15.6 10.7 -15.1 0.7 0.3 1.3 -0.2 1.3 -1 0 -0.8 -0.4 -1.3 -0.9 -1 -0.5 0.4 0.7 -1.7 2.7 -4.5 3.9 -5.4 5.3 -6.6 3.4 -2.9 -0.9 1.8 -0.9 2.1 0.1 1.1 0.7 -0.6 1.3 -2.2 1.4 -3.5 0.1 -1.4 1.1 -2.8 2.9 -3.6 1.5 -0.7 2.7 -1.8 2.7 -2.3 0 -0.6 -0.5 -0.7 -1.2 -0.3 -0.6 0.4 0.3 -1.1 2.1 -3.4 1.9 -2.3 3.8 -4 4.3 -3.9 0.6 0.1 1.2 -0.6 1.3 -1.6 0.5 -2.6 3.5 -5.8 4.8 -5 0.6 0.3 0.7 0.1 0.3 -0.5 -1 -1.7 29.1 -32.2 31.2 -31.5 1.2 0.3 1.3 0.2 0.4 -0.4 -0.9 -0.7 0.8 -2.7 6.3 -7.4 4.2 -3.5 8.1 -6.3 8.6 -6.1 0.5 0.1 0.8 -0.2 0.7 -0.7 -0.2 -0.6 3.1 -3.7 7.2 -7 7.2 -5.8 9.9 -7.4 8.4 -4.9 -0.4 0.7 -0.3 0.8 0.5 0.4 0.6 -0.4 0.9 -1.1 0.6 -1.6 -0.3 -0.4 1.2 -2 3.2 -3.6 2 -1.5 3.3 -2.2 2.9 -1.6 -1.2 2 0.7 1.3 3.9 -1.4 2.9 -2.4 2.9 -2.4 0.3 -0.8 -4.3 2.5 -3.3 1 1.2 -2 2.2 -1.4 5 -2.6 6.2 -2.6 1.7 0 1.9 -0.3 0.9 -0.9 -1.7 -1.1 0.3 -2.5 2.2 -1.5 0.6 0.4 0.9 0.3 0.4 -0.1 -1 -1.2 7.5 -6.6 9.4 -6 0.9 0.3 2.2 -0.2 3 -1.1 1.3 -1.6 1.2 -1.6 -0.9 -0.5 -1.2 0.6 -2.2 1 -2.2 0.7 0 -0.9 11.5 -6.8 13.7 -7.1 1.3 -0.1 2.7 -0.6 3.1 -1 0.4 -0.5 -0.1 -0.5 -1 -0.2 -4 1.4 -1.3 -0.5 5.2 -3.8 3.9 -2 7.6 -3.3 8.2 -2.9 0.6 0.4 0.8 0.3 0.5 -0.3 -0.4 -0.6 0 -1.4 0.9 -1.7 0.9 -0.4 1.3 -0.2 0.8 0.5 -0.4 0.8 0.1 0.9 1.7 0.4 3.4 -1 5.1 -2.9 1.9 -2.1 -1.4 0.3 0 -0.6 3 -2.1 3.1 -1.5 7 -2.5 8.9 -2.4 2.5 0.1 3.2 -0.2 2.8 -1.3 -0.8 -1.9 12.7 -7.6 16.8 -7 1.7 0.2 2.1 0.1 1 -0.3 -1.4 -0.4 1.2 -1.7 8.5 -4.2 7.9 -2.8 11.9 -3.7 15.8 -3.5 2.8 0.2 5.2 -0.2 5.2 -0.7 0 -0.5 -0.8 -0.9 -1.7 -1 -1.5 0 -1.5 -0.2 0.2 -0.9 1.1 -0.5 2.7 -0.9 3.5 -0.9 0.9 0 0.8 0.4 -0.5 0.9 -1.1 0.5 -1.5 0.9 -0.8 0.9 1.9 0.1 4.3 -1.1 3.8 -1.9 -0.5 -0.7 4.6 -2.1 9.1 -2.5 1.1 -0.1 2.6 -0.5 3.4 -1 0.7 -0.5 3.6 -0.8 6.4 -0.8 3.6 0.1 4.5 -0.1 3.1 -0.7 -1.7 -0.8 -1.6 -0.9 0.8 -0.9 1.6 -0.1 2.6 0.3 2.2 0.9 -0.7 1.2 0.2 1.2 3 0 1.9 -0.8 1.9 -0.9 0.1 -0.9 -4.6 -0.2 0.2 -1.2 16.5 -3.6 16.5 -2.5 19.4 -2.6 56.9 -2.5 32.1 0.1 41.7 0.4 51 1.8 7.9 1.2 11.4 2.1 11.2 3 -0.1 0.7 0.9 1.2 2.5 1.1 2.5 0 2.6 -0.1 0.8 -1 -1.3 -0.6 -0.4 -0.7 3 -0.3 5.4 0.7 7.2 1.4 3.6 1.4 -1.3 0 -1.9 0.4 -1.6 1 0.4 0.6 3.8 1 7.8 0.9 8.6 -0.2 26.8 3.7 24.6 5.3 -1 0.7 -0.7 0.8 1.1 0.4 3.4 -0.7 7.7 0.4 5.8 1.5 -0.8 0.5 0 0.8 2.2 0.7 4.8 -0.2 23.7 6.1 21.9 7.3 -0.9 0.6 -0.2 0.9 2.3 0.9 4.3 0 16.5 5 14.8 6 -1.8 1.1 0.3 2.1 3.9 1.8 3.9 -0.3 13.1 4 12.4 5.8 -0.3 0.9 0.2 1.4 1.2 1.4 0.9 0 1.3 -0.4 1 -1 -0.3 -0.6 0.1 -0.7 0.9 -0.4 0.9 0.3 1.3 1.1 1 1.6 -0.4 0.6 -0.1 0.8 0.7 0.6 1.3 -0.5 14.9 5.7 14.9 6.7 0 0.3 -0.9 0.1 -2 -0.5 -1.5 -0.8 -2 -0.8 -2 0.3 0 0.8 1.4 1.4 3.7 1.5 3.5 0.3 15.4 6.1 12.5 6.2 -0.7 0 -1 0.4 -0.7 1 0.3 0.5 1.6 0.9 2.9 0.8 2.7 -0.2 12.9 6 12 7.3 -0.3 0.5 -0.2 0.9 0.3 0.8 2.1 -0.4 3.4 0.2 2.7 1.3 -0.4 0.7 -0.3 0.8 0.4 0.4 1.5 -0.9 6.2 2.2 6.2 4 0 0.8 1.3 1.7 2.9 2 1.6 0.4 4.4 1.9 6.3 3.6 1.8 1.6 2.7 2.6 1.9 2.2 -0.9 -0.5 -1.2 -0.3 -0.7 0.5 0.4 0.6 1.2 0.9 1.7 0.6 1.3 -0.9 8 4.5 7.2 5.8 -0.3 0.5 -0.1 0.7 0.5 0.4 1.3 -0.9 11.3 7 11.9 9.4 0.3 1.1 1.3 1.9 2.2 1.9 1.9 0 5.4 3.5 6.4 6.3 0.4 0.9 1.2 1.7 2 1.7 1.9 0 5.7 4.3 5.7 6.3 0 0.9 0.7 1.7 1.6 1.7 0.9 0 1.2 -0.5 0.8 -1.2 -0.4 -0.7 0.7 0 2.4 1.6 1.8 1.7 3.2 4 3.2 5.3 0 1.5 0.6 2.3 1.8 2.3 1 0 3.4 1.6 5.3 3.7 1.8 2 2.8 3.2 2 2.8 -0.9 -0.5 -1.2 -0.4 -0.7 0.3 0.4 0.7 1.4 1.2 2.1 1.2 1.7 0 3.7 3.4 2.7 4.5 -0.4 0.5 -0.2 0.5 0.4 0.2 1.4 -0.8 3.7 1.7 2.6 2.8 -0.4 0.5 -0.2 0.5 0.4 0.2 0.7 -0.4 2.3 0.8 3.7 2.6 1.3 1.7 3.9 4.8 5.6 6.7 1.7 1.9 2.9 4 2.6 4.7 -0.2 0.7 0.1 1.5 0.7 1.9 0.7 0.5 0.8 0.2 0.4 -0.7 -1.1 -2 1 0.5 6.2 7.3 2.3 3.2 4.2 6.6 4.2 7.6 0 1.2 0.9 2.2 2.1 2.5 1.4 0.4 2 1.1 1.6 2.1 -0.4 0.9 -0.1 1.5 0.6 1.3 0.7 -0.1 1.2 0.7 1.2 1.8 0 1.1 0.7 2 1.5 2 0.8 0 1.4 0.8 1.4 1.8 -0.1 0.9 0.2 1.4 0.7 1.2 0.4 -0.3 1.3 0.3 1.8 1.4 1.4 2.6 1.4 3.4 -0.1 2.5 -0.7 -0.4 -0.8 -0.3 -0.4 0.5 0.4 0.6 1.1 0.9 1.6 0.6 1.1 -0.7 3.1 2.9 4 7 0.4 1.7 1.1 2.9 1.7 2.8 1.6 -0.3 7.2 10.4 6.6 12.6 -0.4 1.5 -0.1 2.1 1.1 2.1 2 0 7.1 10.3 6.8 13.8 -0.1 1.2 0.4 2.2 1.2 2.2 0.7 0 1.8 1.1 2.4 2.5 1.4 3.1 1.5 4.6 0.2 2.5 -0.8 -1.2 -1 -1.1 -1 0.7 0 1.4 0.5 2.1 1.3 1.7 1.4 -0.5 5.1 6.2 4.2 7.7 -0.4 0.5 -0.1 1.7 0.4 2.6 0.6 1 1.1 1.4 1.1 0.8 0 -0.5 0.5 -0.3 1 0.5 1.3 2 1.3 3.3 0 2.5 -0.5 -0.3 -1 0.1 -1 1 0 1 0.6 1.5 1.3 1.2 1.6 -0.6 5.1 8.1 5.2 12.8 0 1.7 0.4 3 0.9 3 1.8 0 6.8 16.4 6.7 22.5 0 3.1 0.3 3.9 0.8 2.6 0.7 -1.9 0.8 -1.8 1.4 0.5 1 3.5 0.8 4.6 -0.3 2.9 -0.8 -1.1 -0.9 -0.8 -0.6 1.5 0.6 4.2 0.7 4.2 1.5 2.2 0.5 -1.3 1.2 0.4 2.5 5.7 1 4.2 1.5 8.4 1.2 9.2 -0.3 0.8 -0.2 1.3 0.3 1 0.4 -0.3 1.1 1.3 1.4 3.7 0.4 2.3 0.9 5.8 1.1 7.7 0.5 3 0.4 3.1 -0.3 1 -0.8 -2 -0.9 -1.3 -0.9 3.3 0.1 3.1 0.6 5.7 1.1 5.7 0.5 0 0.7 -0.6 0.4 -1.3 -0.3 -0.8 -0.1 -2 0.4 -2.8 0.6 -1 0.9 -0.7 0.9 1.2 0 1.4 -0.5 3 -1 3.5 -0.6 0.6 -0.7 1.9 -0.3 3 0.6 1.7 0.8 1.7 1.4 -0.6 0.6 -2.3 0.7 -2.2 0.8 0.8 0.1 1.8 -0.3 3.1 -0.7 2.8 -0.4 -0.2 -0.9 0.6 -1 2 -0.2 2.7 1.5 3.3 2 0.7 0.6 -2.7 2 13.3 2.7 30.7 0.8 19.9 -0.8 63.5 -2.5 66.1 -0.3 0.5 -1 0.7 -1.5 0.4 -0.5 -0.4 -0.9 0.1 -0.9 1 0 0.9 0.5 1.3 1 1 0.6 -0.4 1 0.5 1 1.9 0 1.4 -0.5 2.6 -1.1 2.6 -0.5 0 -0.8 0.4 -0.5 0.9 0.4 0.5 0.1 1.1 -0.6 1.3 -0.8 0.3 -1.3 3.4 -1.4 9.9 -0.1 10.8 -3.2 26.6 -4.5 23.4 -0.5 -1.2 -0.6 -0.3 -0.2 2.3 0.5 3.4 0.3 4.2 -1.1 4.2 -0.9 0 -1.6 0.8 -1.6 1.8 0 1.5 0.2 1.5 1.1 0.2 0.9 -1.2 1 -1.2 0.5 0.3 -0.3 1 -0.6 2.6 -0.7 3.5 0 1.4 -0.2 1.3 -0.9 -0.3 -0.6 -1.5 -0.8 -1 -0.7 2 0 4.5 -6 24.5 -7.5 24.5 -0.5 0 -0.7 0.4 -0.4 0.9 0.9 1.4 -2.5 10.2 -3.6 9.4 -0.7 -0.3 -0.8 -0.1 -0.4 0.5 1 1.6 -0.4 6.3 -1.7 5.5 -0.5 -0.3 -0.7 -0.1 -0.4 0.5 1 1.5 -0.3 4.3 -1.6 3.5 -0.6 -0.3 -0.7 -0.1 -0.3 0.6 1 1.6 -0.3 5.3 -1.6 4.5 -0.7 -0.4 -0.8 -0.2 -0.4 0.4 1.1 1.8 -4.5 13.6 -5.6 12 -0.6 -0.9 -0.8 -0.7 -0.7 0.7 0.4 3 -1.1 6.6 -2.3 5.9 -0.6 -0.4 -0.8 -0.2 -0.4 0.4 0.9 1.4 -1.4 6.3 -2.7 5.5 -0.6 -0.3 -0.7 -0.1 -0.4 0.5 0.4 0.5 0.4 1.8 0.1 2.7 -0.6 1.3 -0.9 1.4 -1.6 0.3 -0.7 -1 -0.8 -0.8 -0.4 0.5 0.7 2.2 -2.1 8 -3.4 7.2 -0.5 -0.3 -1.4 0.5 -2 1.7 -1.1 2.2 -1 2.2 0.4 0.4 2 -2.5 2 -1.3 0.1 2.5 -0.9 1.7 -2.1 2.7 -2.7 2.3 -0.7 -0.4 -0.8 -0.3 -0.4 0.4 0.7 1.2 -3.7 9.7 -5.6 10.9 -0.7 0.4 -0.8 0.1 -0.3 -0.8 0.8 -1.2 0.6 -1.2 -0.8 0 -1.9 1.5 -2.3 3.6 -0.5 2.5 1.4 -0.9 0.7 0.3 -5 8.6 -4.5 6.5 -7.3 10 -5.7 7 0.8 -1.3 0.7 -1.3 -0.8 -0.1 -1.8 1.5 -2.3 2.6 -0.7 1.6 1.5 -0.9 1.2 0.7 -0.6 3 -0.8 1.1 -2 2 -2.7 2 -0.7 0 -1.1 0.7 -1 1.5 0.3 1.9 -14 19.6 -15.5 19.3 -0.6 -0.2 -0.9 0.3 -0.6 1 0.2 0.7 -1 2.6 -2.8 4.2 -2.7 2.5 -2.9 2.6 -1.3 0.5 l2 -2.5 -2.2 1.8 c-1.2 1.1 -2 2.4 -1.7 3.1 0.3 0.7 -0.8 2.3 -2.2 3.6 -1.5 1.4 -2.4 1.9 -1.9 1.1 0.5 -1 0.4 -1.2 -0.4 -0.7 -0.6 0.4 -0.9 1.1 -0.6 1.5 0.4 0.8 -3.3 4.8 -4.1 4.4 -0.2 -0.2 -0.4 0 -0.4 0.5 -0.2 1.8 -6.3 7 -7.8 6.4 -1.1 -0.4 -1.4 -0.1 -0.9 1 0.3 1 -0.3 2.3 -1.6 3.5 -2.1 1.8 -2.1 1.8 -0.7 -0.2 1.4 -1.8 1.4 -1.9 -0.2 -0.6 -1 0.7 -1.6 1.7 -1.3 2.1 0.2 0.4 -0.4 1.5 -1.4 2.4 -1.5 1.3 -2 1.4 -2.4 0.4 -0.3 -0.8 -0.6 -0.5 -0.7 0.7 -0.1 2.3 -22.2 21.1 -24.5 20.9 -0.8 -0.1 -1.3 0.3 -1.2 0.9 0.1 0.6 -0.8 1.6 -2 2.2 -1.3 0.5 -2.3 1.3 -2.3 1.7 0 0.4 -0.6 0.5 -1.4 0.2 -0.8 -0.3 -1.7 0 -2.2 0.7 -0.5 0.8 -0.3 1 0.7 0.5 0.8 -0.4 -0.1 0.6 -2 2.3 -1.9 1.7 -3.8 2.8 -4.2 2.6 -0.4 -0.3 -1 0.2 -1.3 1.1 -0.4 0.9 -1.3 1.4 -2.2 1 -0.8 -0.3 -1.2 -0.2 -0.9 0.3 0.8 1.5 -1.4 2.4 -2.9 1.2 -0.9 -0.8 -1.3 -0.7 -1.3 0.4 0 0.8 0.4 1.2 0.9 0.9 0.4 -0.3 0.8 -0.3 0.8 0 0 1.2 -7.4 5.4 -8.7 4.9 -0.8 -0.3 -1.3 0 -1.1 0.7 0.2 0.7 -0.3 1.5 -1.1 1.8 -0.9 0.3 -1.1 0 -0.6 -0.8 0.5 -0.9 0.4 -1.1 -0.4 -0.6 -0.6 0.4 -0.9 1.1 -0.6 1.6 0.7 1.1 -8.5 6.1 -9.8 5.3 -0.5 -0.3 -0.7 -0.1 -0.4 0.4 0.4 0.6 -2.5 2.7 -6.6 4.9 -8.7 4.7 -11 5.7 -10.2 4.5 0.3 -0.5 0.1 -1.2 -0.5 -1.6 -0.9 -0.6 -1.4 0.7 -1.1 2.7 0.2 1.4 -9.7 5.8 -11.6 5.2 -1.3 -0.4 -1.5 -0.3 -0.5 0.4 1.1 0.7 0.9 1 -0.7 1.5 -1.2 0.3 -2.1 0.1 -2.1 -0.5 0 -0.5 -0.5 -0.6 -1 -0.3 -0.6 0.4 -0.8 1 -0.5 1.5 0.6 1.1 -11.4 5.5 -14.2 5.2 -1.1 -0.2 -2.4 0.2 -2.8 0.8 -0.5 0.9 -0.1 1 1.4 0.5 1.1 -0.3 2.1 -0.4 2.1 -0.2 0 1.1 -14.9 5.9 -16.1 5.2 -0.7 -0.5 -1 -0.4 -0.6 0.2 1 1.5 -1.6 2.3 -5.5 1.6 -2.4 -0.3 -3.8 0 -4.7 1.1 -1.2 1.4 -1.1 1.6 0.5 1 1.5 -0.4 1.6 -0.4 0.4 0.4 -2.6 1.7 -13.7 4.2 -15.6 3.5 -1.1 -0.4 -1.5 -0.3 -1.1 0.4 0.9 1.4 -3.5 2.5 -7 1.8 -2.2 -0.4 -2.4 -0.3 -0.8 0.3 1.7 0.8 1.4 1 -1.9 1.6 -2.1 0.4 -4.1 0.5 -4.4 0.2 -0.3 -0.3 0.5 -0.6 1.8 -0.6 1.3 0 2.1 -0.3 1.7 -0.6 -0.9 -0.9 -5.9 0.5 -5.2 1.5 0.7 1.2 -4.2 2.3 -6.7 1.5 -1.3 -0.4 -1.8 -0.2 -1.4 0.4 0.7 1.2 -11.5 3.6 -18.6 3.7 -2.5 0 -4.4 0.3 -4.1 0.8 0.2 0.4 -0.8 0.7 -2.4 0.6 -2.5 0 -2.6 -0.1 -0.8 -0.9 1.8 -0.8 1.7 -0.9 -0.7 -0.9 -1.9 -0.1 -2.8 0.4 -2.8 1.4 0 1.1 -1.1 1.5 -3.6 1.5 -1.9 0 -3.3 -0.4 -3 -0.9 0.3 -0.4 -0.6 -0.6 -2 -0.3 -1.6 0.3 -2.1 0.7 -1.4 1.2 1.3 0.8 -9.2 1.6 -33.2 2.6 -9.1 0.4 -15.8 0.3 -15.8 -0.2z m53 -24.9 c66.8 -9.2 124.3 -32.5 175.7 -71.1 81.5 -61.4 132.5 -149.4 145 -250.4 2.2 -18 2.5 -68.4 0.5 -85.5 -5.4 -45.7 -18.2 -88.8 -38.3 -128.7 -50.9 -100.7 -150.3 -174.1 -261.9 -193.3 -28.3 -4.9 -69.4 -6.9 -96 -4.6 -56.1 4.7 -105.2 19.5 -152.5 46 -52.6 29.5 -101.2 76.7 -132.9 128.9 -26.8 44.2 -43.2 92.1 -50.3 146.7 -2.5 19.7 -2.5 69.9 0.1 90 5.6 44.5 16.6 81.4 35.2 119 23.6 47.6 57.9 90.6 98.2 122.8 10.8 8.6 38.6 28.7 39.7 28.7 0.3 0 5.3 2.8 11.2 6.2 32.7 18.8 73.7 34 110.8 41.2 11 2.1 25.9 4.1 44 6 9.6 1 60.5 -0.3 71.5 -1.9z m197 -59 c1 -1.2 1 -1.5 -0.4 -1.5 -0.9 0 -1.6 0.7 -1.6 1.5 0 0.8 0.2 1.5 0.4 1.5 0.2 0 0.9 -0.7 1.6 -1.5z m10.5 -8.5 c0.3 -0.6 -0.1 -1 -0.9 -1 -0.9 0 -1.6 0.5 -1.6 1.1 0 0.5 -0.4 0.8 -0.8 0.5 -0.5 -0.3 -0.9 0.1 -0.9 0.9 0 1 0.5 1.1 1.8 0.4 1 -0.5 2.1 -1.4 2.4 -1.9z m-628.5 -403.4 c0 -2.6 -0.6 -1.8 -1.4 1.9 -0.5 2.2 -0.4 2.6 0.4 1.5 0.5 -0.8 1 -2.4 1 -3.4z"/>
  <path d="M492 863 c-49.9 -3.2 -93.9 -14.9 -138.5 -37 -49.5 -24.5 -96.1 -64.8 -130.9 -113.2 -58.9 -81.9 -78.2 -191.9 -51.6 -294.5 4 -15.3 12 -38.9 14.6 -43 0.8 -1.2 1.4 -2.9 1.4 -3.7 0 -2.3 17.4 -36.4 24.1 -47.1 28.7 -45.8 68.4 -85.9 112.9 -113.8 13.7 -8.6 41.3 -22.6 55.5 -28 27.4 -10.6 57.9 -18.3 87.9 -22.3 16.2 -2.1 56.3 -2.9 73.7 -1.5 40.3 3.4 85.4 14.8 116.4 29.5 5 2.4 11.7 5.5 15 7 16 7.4 42.2 24.3 61 39.3 19.8 15.8 45.1 41.8 60.2 61.8 37.5 50 60.3 106.8 69 172 2.4 18.3 2.4 66.7 0 84.8 -6.4 47.9 -19.6 87.7 -43.5 131.2 -23.6 43.1 -63.2 85.9 -108.1 117.1 -41.1 28.5 -89.3 48.2 -139.1 56.8 -23.7 4.1 -57.2 6 -80 4.6z m-10 -29.5 c0 -0.3 -3.1 -18.4 -6.9 -40.2 -3.8 -21.9 -7.2 -41.7 -7.6 -44.1 -0.5 -3.2 -1.2 -4.3 -2.8 -4.7 -16 -3.6 -20 -4.5 -20.2 -4.3 -0.1 0.2 -6 8.9 -13.2 19.3 -7.1 10.5 -18.5 26.8 -25.1 36.3 -6.7 9.5 -12.4 17.6 -12.6 18.1 -0.5 0.8 12.6 5.4 19.2 6.7 2.7 0.6 3.2 0.1 7.2 -6.3 2.3 -3.7 4.3 -6.9 4.4 -7 0.1 -0.1 4 0.7 8.6 1.7 4.7 1 11.9 2.6 16.2 3.5 l7.6 1.7 0.7 6.1 c1.1 9.2 1.9 10.7 5.7 10.7 1.8 0.1 6.2 0.7 9.8 1.4 7.7 1.6 9 1.8 9 1.1z m44.4 -0.5 l8.9 0 -0.6 -19.6 c-0.4 -10.8 -0.4 -25.3 -0.1 -32.3 0.7 -12.3 0.8 -12.7 3.2 -13.9 1.4 -0.7 4.6 -1.2 7.1 -1.2 2.6 0 5.1 -0.4 5.6 -0.8 0.6 -0.4 0.9 -4.4 0.7 -9.5 l-0.3 -8.7 -4.2 0.7 c-2.3 0.4 -15.8 0.7 -30 0.8 l-25.8 0 0.4 9 0.3 9 10.2 0.3 10.2 0.3 0 9.3 c0 5.1 0.3 20.2 0.7 33.5 0.6 24 0.6 24.2 2.7 23.7 1.2 -0.3 6.1 -0.6 11 -0.6z m84.3 -14.5 c0.2 -0.1 -1.7 -7.5 -4.1 -16.6 -2.4 -9 -7.2 -27.1 -10.7 -40.2 -5.2 -19.8 -6.5 -23.7 -7.8 -23.2 -0.9 0.4 -5.4 1.6 -10.1 2.7 -4.7 1.2 -8.6 2.2 -8.8 2.4 -0.2 0.1 1.2 5.7 2.9 12.5 1.8 6.8 3.2 13.6 3.3 15.1 0 1.5 0.4 2.4 1 2.1 0.5 -0.3 0.7 0.5 0.4 2 -0.3 1.5 -0.2 2.5 0.1 2.2 0.4 -0.2 3.3 10.1 6.5 22.8 3.3 12.8 6.1 23.5 6.2 23.8 0.3 0.5 20.1 -4.7 21.1 -5.6z m50.3 -21.1 l7.8 -5.6 -11 -17.1 c-11.4 -17.6 -13.3 -21.9 -9.4 -20.9 1.7 0.4 30 10.1 49 16.7 l3.8 1.4 7.8 -5.7 7.7 -5.6 -5.8 -8.5 c-3.2 -4.8 -13.3 -20.1 -22.4 -34.1 -9.2 -14 -17.2 -25.4 -17.7 -25.2 -0.6 0.2 -4.5 2.6 -8.7 5.5 -4.2 2.8 -7.8 5.3 -8 5.4 -0.4 0.3 2.6 5 15.6 25 5.1 7.8 9.3 14.5 9.3 14.7 0 0.3 -1.2 0.1 -2.7 -0.5 -2.3 -0.9 -25.3 -9 -50.1 -17.5 l-4.3 -1.5 -7.5 4.7 c-4.6 3 -7.3 5.3 -7 6.1 0.3 0.7 10.1 16.6 21.8 35.3 14 22.4 21.7 33.8 22.6 33.5 0.7 -0.3 4.8 -3 9.2 -6.1z m-287.6 -7.4 c8.1 -2.5 17.9 -9.7 22.3 -16.4 11.1 -16.5 9.2 -39.1 -4.4 -53.8 -17.5 -18.6 -50.8 -18.5 -67.6 0.2 -15 16.8 -13.6 43.8 3 59 5.9 5.4 14.8 10.4 21.1 11.9 6.9 1.7 18.6 1.2 25.6 -0.9z m-86.3 -68.3 c0.9 -4.5 2 -8.9 2.3 -9.8 0.6 -1.3 -0.1 -1.8 -3.5 -2.3 -13.3 -2.1 -22.6 -13.2 -21.7 -25.7 0.5 -7.1 4.5 -14.1 10.5 -18.3 3.5 -2.4 5.4 -3 11.5 -3.3 6.2 -0.4 8 -0.1 11.8 1.9 2.6 1.3 5.8 4.1 7.5 6.6 2.8 4.1 3 4.9 3 13.9 l0 9.5 3.5 -0.6 c1.9 -0.3 6.8 -0.8 10.8 -1.2 l7.2 -0.7 0 -5.6 c0 -6.9 -2.3 -16.8 -5.1 -22.3 -2.9 -5.8 -11 -14 -16.6 -17 -8.3 -4.5 -15.5 -6.1 -25.7 -5.6 -7.8 0.3 -10.1 0.9 -16 3.7 -16.2 7.8 -24.4 22.3 -23.4 41.2 0.4 7 1.2 10 3.8 15.8 5.2 11.2 16.8 21.3 30.2 26.1 8.2 3 8.1 3 9.9 -6.3z m253.4 -4.1 c9.7 -2.4 24 -7.1 26 -8.6 0.6 -0.4 2.9 -1.4 5.2 -2.3 6.5 -2.5 20 -11.7 27.5 -18.6 19.2 -17.8 29.4 -39 30.5 -63.9 1.3 -27.3 -7.2 -48.8 -27.2 -68.7 -9.7 -9.7 -22.1 -19.2 -23.3 -18 -0.4 0.3 0 1 0.8 1.5 3.3 2.1 -1.5 0.7 -13.6 -3.9 -7.1 -2.7 -14.9 -5.8 -17.4 -7 -6.2 -2.8 -16.3 -9.7 -17 -11.6 -0.6 -1.7 -4.9 9.6 -8.1 20.9 -3.9 14.2 -1.8 33 5.5 48.1 1.9 3.9 7.1 11.7 11.7 17.5 4.5 5.8 9.8 12.5 11.7 15 l3.4 4.4 -0.6 -7.9 c-1.6 -19.4 -2.8 -29.4 -4.1 -35.5 -0.7 -3.6 -1.2 -6.6 -1 -6.8 0.4 -0.4 3.9 2.4 10.7 8.7 10.2 9.3 19.7 26.3 23.3 41.8 2 8.3 2.3 30.3 0.6 38.8 -2.1 10.4 -5.9 20.7 -12.4 33.5 -5.7 11.4 -6.4 12.5 -9 12.5 -1.5 0.1 -3.6 0.8 -4.6 1.7 -1.1 0.9 -2.2 1.4 -2.4 1.1 -0.3 -0.3 -2.3 0.1 -4.4 0.7 -5.3 1.8 -6.7 2.2 -7.2 2 -0.2 -0.1 -0.8 0.5 -1.2 1.3 -0.5 0.9 -1.8 1.3 -3.4 0.9 -1.4 -0.2 -2.5 0 -2.5 0.6 0 1.4 -8.6 2.5 -21.5 2.7 -14.9 0.3 -15.5 0.3 -15.5 1.6 0 2.2 28 0.4 39.5 -2.5z m-41.1 1.5 c0.5 -0.8 -1.7 -1.2 -7.4 -1.2 -1.4 -0.1 -3 -0.5 -3.7 -1.1 -0.7 -0.5 -1.7 -0.7 -2.2 -0.3 -0.6 0.3 -2.1 0 -3.3 -0.6 -1.3 -0.7 -3.4 -1.3 -4.8 -1.4 -1.4 -0.1 -3 -0.4 -3.5 -0.7 -1.4 -0.8 -8.8 -2.2 -10.2 -1.9 -0.7 0.1 -1.3 -0.2 -1.3 -0.8 0 -1.3 -5.7 -3.1 -7.5 -2.5 -0.8 0.4 -1.5 0.1 -1.5 -0.6 0 -0.6 -0.5 -0.8 -1.1 -0.4 -1.5 0.9 0.4 1.9 9.4 5 7.8 2.7 28.2 7.2 33.4 7.3 1.7 0.1 3.4 -0.3 3.7 -0.8z m244.6 -0.1 c9.3 -1.8 15.7 -5.4 24 -13.8 8.6 -8.6 12.4 -15.5 16.1 -28.7 l2.2 -8 -3.9 -3.2 c-18.3 -14.8 -25.7 -20.4 -26.4 -19.6 -3 3.4 -17 21.7 -17 22.3 0 0.5 3.2 3.1 7 5.9 7.7 5.7 8.2 5.7 13.4 0.3 5.5 -5.8 7.5 -0.9 3.2 7.7 -3.5 6.9 -6.7 10.3 -12.7 13.5 -15.1 8.3 -33.9 -3.4 -33.9 -21.1 0 -9.8 8.9 -21.7 18.2 -24.5 2.2 -0.6 4.2 -1.7 4.5 -2.4 0.2 -0.6 -0.8 -5 -2.2 -9.7 l-2.7 -8.6 -3.2 0.6 c-10.2 1.9 -23.5 12.7 -29.3 23.9 -10.3 19.4 -7.8 39.3 6.6 53.4 10.7 10.4 23 14.5 36.1 12z m-300 -15 c0 -1.2 -4 -3.3 -4.8 -2.5 -0.4 0.4 0.2 1.3 1.2 2.1 2.3 1.6 3.6 1.8 3.6 0.4z m-6 -3 c0 -1.1 -4 -3.4 -4 -2.3 0 0.4 -0.5 0.1 -1 -0.7 -0.8 -1.3 -1 -1.3 -1 0.1 0 0.9 1 2.1 2.3 2.7 2.8 1.4 3.7 1.4 3.7 0.2z m-21.9 -13.3 c-0.6 -0.6 -1.5 -1.2 -1.9 -1.3 -0.4 0 -2.9 -2.2 -5.7 -4.8 -2.7 -2.6 -5.1 -4.3 -5.3 -3.6 -0.2 0.6 0.7 1.9 2 2.9 1.2 1.1 4.3 3.5 6.8 5.4 4.1 3.3 7 4.3 4.1 1.4z m37.4 0.5 c-4.5 -3.9 -27.5 -33.2 -26.1 -33.2 0.3 0 2 1 3.8 2.3 7.5 5 38.9 19.9 47.3 22.3 7.9 2.4 10.8 2.7 24 2.8 13.3 0 16.1 -0.3 24.8 -2.7 8.8 -2.4 13.7 -4.2 13.7 -5.1 0 -0.2 -2.6 0.6 -5.7 1.7 -4.8 1.6 -7.4 1.8 -14.8 1.3 -20.3 -1.3 -36.3 -9.5 -59.3 -30.5 -16.9 -15.5 -41.3 -30.5 -59.3 -36.5 -9.2 -3.1 -23.2 -5.6 -30.8 -5.6 -17.6 0.1 -38.2 8.1 -52.6 20.4 l-3 2.5 4.1 0.1 c7.1 0 23.5 4.8 33 9.5 9.9 4.8 18.3 10.8 27.6 19.3 5.8 5.4 6.9 5.9 4.6 2.2 -1.6 -2.6 -1.1 -2.9 5.3 -3.1 5.4 -0.2 5.8 0 14.1 6.4 14.4 10.9 24.6 16.8 41.8 24.3 8.6 3.7 10.3 4.1 7.5 1.6z m-58 -18.4 c-2.7 -2.9 -5 -5.5 -5.2 -5.7 -0.2 -0.2 -0.3 0 -0.3 0.6 0 1.4 9.1 11.5 9.8 10.9 0.3 -0.3 -1.7 -2.9 -4.3 -5.8z m147 -7.9 c-3.4 -18.2 -8.3 -29.3 -19.2 -43.6 -17.8 -23.3 -25.2 -41.6 -27.3 -67.3 -1.1 -13.2 0 -26.7 3 -37.8 6.8 -24.9 25.6 -48.2 47.1 -58.1 14.4 -6.7 25.5 -8 53.1 -6.1 17 1.2 19.7 1.2 26.6 -0.3 8.4 -1.8 19.8 -7 25.1 -11.4 l3.3 -2.8 -3.6 -6.2 c-2 -3.4 -3.6 -6.6 -3.6 -7.2 0 -1.3 2.2 -5.3 3.3 -6.2 0.4 -0.3 -2.3 -1.8 -6 -3.4 -15.7 -6.5 -30.4 -16.9 -38.4 -27.1 -23.4 -29.8 -34.1 -38 -61.5 -47.3 -9.5 -3.2 -27.5 -8.1 -29.9 -8.1 -1.5 0 0 3.2 3.2 6.9 l3.7 4.3 -3.5 -0.7 c-8.6 -1.8 -11.5 -4.1 -19 -14.8 -14.8 -21 -21.5 -29.5 -30.5 -38.4 -5.1 -5.1 -9.8 -9.3 -10.3 -9.3 -3.2 0 -10.9 15.4 -15.3 30.5 -1.9 6.8 -2.2 10.3 -2.2 23.5 0 17.8 1.2 23.6 7.5 36.8 l4 8.3 -9.8 9.7 c-19.4 19.3 -30.2 34.9 -39.6 57.7 -4.4 10.8 -9.7 30.5 -8.2 30.5 0.6 0 12.5 -16.9 13.2 -18.6 1 -2.6 -2.6 -1.4 -4.8 1.6 -2.3 3 -5.1 4.8 -4.4 2.7 5.1 -16.6 8.7 -24.7 10.8 -24.7 0.7 0 2.3 -1.4 3.6 -3.1 2.8 -3.7 16.7 -14.1 23.5 -17.6 2.8 -1.4 9.3 -4 14.6 -5.8 16.7 -5.7 17.8 -5.6 10.9 1 -7.5 7.3 -17.9 24.3 -22.6 37 -5.3 14.3 -8 35.5 -6.3 48.6 2 15.6 5.4 29.9 7 29.9 0.4 0 1 -3 1.3 -6.7 0.6 -6.6 2.5 -14.9 3.2 -14.1 0.2 0.2 -0.3 3 -1.1 6.3 -1.6 7.1 -1.8 23.4 -0.3 32.5 0.9 5.9 4.6 18.5 6.8 23.5 0.5 1.1 2.1 4.6 3.5 7.8 4 9.2 18.7 23.4 47.7 46.2 22.2 17.4 37.2 34.6 40.7 46.3 2.1 6.9 2.5 4.2 0.7 -4.9z m115.4 -10.5 c2.8 -2.5 8.5 -8.6 12.6 -13.5 30.9 -36.8 47.6 -82.2 47.7 -129.4 0 -34.2 -6.4 -63.2 -20.5 -92.1 -26.4 -54 -69.8 -89.9 -130.2 -107.9 -16.2 -4.8 -17.3 -5.4 -24.2 -12.4 -3.6 -3.6 -6.2 -5.7 -5.8 -4.6 2.3 5.9 5.5 21.8 5.5 27.1 l0 6.1 8.5 2.8 c16.9 5.5 32.5 16.2 47.7 32.8 26.7 29.1 38.1 37.5 64.8 47.8 5.8 2.2 9.7 4.4 12.4 7.1 3.6 3.6 3.8 4.1 3.2 8 -2.6 16 -24.2 32.3 -48.7 36.8 -3.5 0.7 -17.4 1.5 -30.9 1.9 -23.4 0.6 -24.7 0.7 -29.4 3.1 -8.2 4.1 -10.9 9.8 -9.4 19.4 1.7 10.9 9.9 21.4 25.3 32.1 40.5 28.1 57.5 48.5 66 79.5 4.6 16.5 4.5 43.1 -0.1 56.1 -0.7 2.2 -0.9 3.9 -0.5 3.9 0.5 0 3.2 -2.1 6 -4.6z m-328.1 -55.3 c14.5 -6.3 28.5 -9.1 46.1 -9.2 7.5 0 14.5 0.3 15.6 0.7 1.1 0.4 -1 -2.5 -4.7 -6.4 -16.2 -17.3 -24.8 -40.9 -26.4 -72.2 -2.3 -46.1 15.3 -88.3 52.8 -126.6 l11.8 -12.1 -1.6 -7.4 c-2.8 -12.8 -2.2 -35.2 1.3 -47.3 0.4 -1.5 -1.1 -1 -8.3 2.9 -42.7 22.9 -76.4 57.9 -96.5 100 -14.2 29.8 -20.2 56.4 -20.3 89.5 0 32.2 5.1 55.7 17.6 82.3 2.3 4.8 4.5 8.7 5 8.7 0.6 0 4 -1.3 7.6 -2.9z m111 -35.6 c-0.7 -0.9 -1.8 -2.1 -2.3 -2.8 -2.7 -3.1 -7.4 -10.8 -9.9 -16.1 -4.6 -9.8 -6.7 -14.9 -6.2 -15.4 0.3 -0.2 -0.3 -2.7 -1.4 -5.6 -1.6 -4.4 -2.8 -10.5 -4.4 -22.1 -0.3 -1.6 -0.3 0.7 0 5.1 0.5 10.1 5.2 27 10 36.7 4.6 9.3 14.7 24.4 15.2 22.9 0.2 -0.6 -0.3 -1.8 -1 -2.7z m71.6 -7.8 c-0.2 -0.7 -1.4 -1.9 -2.7 -2.6 -2 -1.3 -2.1 -1.3 -0.8 0.2 0.7 1 1 1.7 0.5 1.7 -1 0 1.7 2 2.8 2 0.4 0 0.5 -0.6 0.2 -1.3z m-14.7 -10.9 c-0.2 -1.3 -0.4 -0.3 -0.4 2.2 0 2.5 0.2 3.5 0.4 2.3 0.2 -1.3 0.2 -3.3 0 -4.5z m-56.7 -1.8 c0 -0.5 -0.7 -1 -1.5 -1 -0.8 0 -1.5 0.5 -1.5 1 0 0.6 0.7 1 1.5 1 0.8 0 1.5 -0.4 1.5 -1z m128.5 -10.5 c-1.6 -1.4 -3.4 -2.5 -3.9 -2.5 -1.2 0 -0.3 0.9 3.1 3.1 4 2.5 4.3 2.2 0.8 -0.6z m-64.5 -8.8 c-0.1 -1.4 -3.9 5.2 -4 6.8 0 0.6 0.9 -0.5 2 -2.3 1.1 -1.8 2 -3.8 2 -4.5z m52.2 -0.6 c-6.7 -5.8 -13.8 -13.5 -17.9 -19.6 -2.4 -3.5 -5.4 -12.1 -4.5 -12.9 0.3 -0.3 0.1 -0.6 -0.5 -0.6 -1.7 0 -13.3 8.9 -13.3 10.1 0 0.6 1.8 -0.5 4 -2.5 2.4 -2.2 5 -3.6 6.6 -3.6 1.4 0 2.3 0.4 1.9 1 -0.3 0.6 -0.1 1 0.5 1 0.7 0 1 0.7 0.6 1.5 -0.3 0.8 -0.1 1.5 0.5 1.5 0.6 0 0.8 0.4 0.5 0.9 -0.3 0.5 0.1 1.2 1 1.5 0.8 0.3 1.2 1 0.9 1.6 -0.3 0.5 -0.1 1 0.5 1 0.6 0 0.8 0.4 0.5 1 -0.3 0.5 0.3 1.5 1.5 2.2 1.1 0.7 2 1.8 2 2.5 0 0.6 0.5 1.3 1.1 1.5 0.6 0.2 1.1 2.2 1.1 4.3 0 2.5 0.3 3.3 0.7 2.2 0.6 -1.6 1 -1.5 3.6 1.2 1.7 1.7 3.6 3.1 4.3 3.1 0.8 0 3.2 1.6 5.5 3.5 2.2 1.9 4.4 3.5 4.9 3.5 0.5 0 -2.2 -2.7 -6 -5.9z m-39.9 -17.8 c1.7 -1.8 2.6 -3.3 2.1 -3.3 -1.9 0 -11.4 13 -11.4 15.4 0 0.6 1.4 -1.1 3.1 -3.9 1.7 -2.7 4.5 -6.5 6.2 -8.2z m-98.9 -29.9 c0.6 -6.9 4.2 -20.6 7.2 -27.7 1.4 -3.3 2.3 -6.1 2.1 -6.3 -0.8 -0.8 -6.7 15.6 -8.7 23.8 -1 4.6 -2.1 13 -2.4 18.8 -0.4 9.3 -0.4 9.7 0.4 3.5 0.5 -3.8 1.1 -9.3 1.4 -12.1z m0 -27.3 c8.3 -8.1 10.6 -12.2 6.9 -12 -1.1 0 -1.3 0.3 -0.6 0.6 0.8 0.3 -0.4 1.8 -3 3.9 -5.6 4.5 -8.7 7.7 -8.2 8.2 0.3 0.3 -0.4 1.2 -1.4 2.1 -1 0.9 -2.2 2.7 -2.6 4.1 -0.4 1.4 -0.5 2.3 -0.2 2 0.3 -0.3 4.4 -4.3 9.1 -8.9z m229.2 -139.3 c-0.8 -3.1 -10.9 -50 -11 -51.4 -0.1 -0.7 8 -6.9 17.9 -13.9 9.9 -7 19.5 -13.9 21.3 -15.2 l3.4 -2.5 -10.9 -4.5 c-5.9 -2.5 -11.6 -4.7 -12.5 -5 -1.5 -0.5 -12.7 6.6 -24.6 15.5 -1.8 1.4 -3.2 2.1 -3 1.6 0.3 -1.2 -4.4 -28 -5.1 -29.3 -0.9 -1.4 -27.5 -11 -27.9 -10.1 -0.2 0.4 2.3 12.4 5.4 26.5 4.6 21.1 5.4 25.9 4.3 26.6 -6.7 3.9 -41.3 29.6 -41 30.4 0.3 0.6 5.8 3.2 12.3 5.8 l11.9 4.9 12.6 -9.1 c11.4 -8.2 12.7 -8.9 13.8 -7.3 0.6 0.9 2.4 7.8 4 15.2 1.6 7.4 3.1 13.9 3.5 14.3 0.9 1.1 22.8 9.4 25.4 9.6 0.4 0.1 0.6 -0.9 0.2 -2.1z m-252.6 -5.3 c6.1 -3 11 -5.8 11 -6.2 0 -0.4 -2.8 -6.7 -6.1 -14 -3.4 -7.4 -6 -13.5 -5.8 -13.6 0.2 -0.2 7.6 -3.4 16.4 -7.2 8.8 -3.8 16.4 -7.1 16.8 -7.5 0.4 -0.4 -0.7 -4.2 -2.6 -8.6 -1.9 -4.3 -3.7 -8.7 -4 -9.6 -0.7 -1.9 1.2 -2.6 -26 9.2 -5.4 2.4 -9.9 4.1 -10.1 3.9 -0.3 -0.2 -2 -3.9 -3.9 -8.1 -2.6 -5.7 -3.2 -7.9 -2.4 -8.6 0.7 -0.5 9.5 -4.2 19.7 -8.3 10.2 -4 18.7 -7.5 18.9 -7.6 0.6 -0.4 -7.1 -17.3 -8.1 -17.9 -1.1 -0.7 -35.1 12.9 -51 20.5 l-12.7 6 4.1 9.3 c2.3 5.1 5.6 12.5 7.5 16.3 7.2 15.5 24.3 53.7 24.3 54.4 0 0.7 2.1 3.1 2.7 3.1 0.2 0 5.3 -2.5 11.3 -5.5z m124.3 -27.1 c10 -2.6 18.3 -7.6 25.2 -15.2 16.3 -18.2 15.7 -46.1 -1.3 -63.1 -9.1 -9.1 -20.1 -13.9 -34.2 -14.8 -21.6 -1.4 -41.5 9.8 -50.7 28.5 -3.8 7.5 -3.8 7.7 -3.8 19.7 0 11.8 0.1 12.1 3.7 19.6 6.1 12.5 19.9 23.2 33.1 25.8 7.2 1.5 21.5 1.2 28 -0.5z"/>
  <path d="M444.3 793.7 c-5.1 -1.2 -9.3 -2.5 -9.3 -2.9 0 -0.3 3.4 -6.2 7.5 -12.9 5.4 -8.9 7.5 -11.6 7.5 -9.8 0 1.4 0.4 2.9 0.8 3.5 0.5 0.5 1.4 5.4 2.1 10.9 0.7 5.5 1.4 10.8 1.7 11.8 0.3 0.9 0.2 1.6 -0.3 1.6 -0.4 -0.1 -5 -1.1 -10 -2.2z"/>
  <path d="M346.9 769.3 c-6.9 -3.6 -10.8 -9.2 -11.6 -16.7 -2.3 -22.1 23.9 -35.4 39.4 -20 4.5 4.6 6.3 9.2 6.3 16.7 0 17 -18.5 27.8 -34.1 20z"/>
  <path d="M394.5 653.3 c-6.7 -2.5 -17.6 -5.2 -19.1 -4.6 -0.8 0.3 -2 0 -2.8 -0.6 -0.7 -0.6 -1.6 -0.8 -1.9 -0.4 -0.4 0.3 -0.7 0.1 -0.7 -0.6 0 -1 1 -1.1 3.8 -0.7 7.4 1.3 26.2 6.8 26.2 7.7 0 1.2 -0.7 1.1 -5.5 -0.8z"/>
  <path d="M403 646.9 c-9.4 -10.5 -22.9 -19.9 -32.5 -22.4 -2.6 -0.7 -1.7 -1 6 -2.2 4.9 -0.7 9.4 -1.2 10 -1 0.5 0.2 -1.5 0.7 -4.5 1.2 -3 0.4 -5.9 0.9 -6.3 1.2 -0.4 0.3 2.9 2.8 7.4 5.5 8 5 21.1 16.4 25 22 3.3 4.6 1.7 3.2 -5.1 -4.3z"/>
  <path d="M447.6 494 c1 -3.8 4.9 -11.2 7.4 -14 l2.2 -2.5 -2.2 3.2 c-1.1 1.8 -3.4 6.1 -5.1 9.5 -1.6 3.5 -2.7 5.2 -2.3 3.8z"/>
  <path d="M617.5 435 c-0.4 -0.6 0.7 -1 2.4 -1 1.7 0 3.1 0.5 3.1 1 0 0.6 -1.1 1 -2.4 1 -1.4 0 -2.8 -0.4 -3.1 -1z"/>
  <path d="M630.1 435.6 c1.2 -1 7.9 -1.6 7.9 -0.6 0 0.5 -1.9 1 -4.2 1 -2.3 0 -3.9 -0.2 -3.7 -0.4z"/>
  <path d="M641.9 434.7 c0.5 -0.5 1.9 -0.7 3.2 -0.5 2 0.3 1.9 0.5 -0.9 0.9 -2 0.3 -2.9 0.2 -2.3 -0.4z"/>
  <path d="M567 424.3 c-8.3 -1.4 -28.2 -1.2 -35.5 0.3 -2.4 0.5 -2.8 0.4 -1.8 -0.6 2.8 -3 38.7 -2.2 46.6 1 2.9 1.2 0.9 1 -9.3 -0.7z"/>
  <path d="M567.5 400.6 c-5.9 -1.8 -8.8 -4.1 -12.6 -9.6 -3.8 -5.5 -4.8 -6 -13.9 -6 l-6.5 0 5.4 -2.5 c6.1 -2.9 13.8 -5.2 19.6 -6 2.2 -0.3 5.1 -0.8 6.3 -1.1 1.3 -0.3 4.8 0.2 7.7 1.1 4.2 1.2 6.3 2.6 9.9 6.6 2.5 2.8 4.6 5.5 4.6 6.1 0 0.5 0.9 2.8 2 5.1 1.9 3.9 1.9 4.2 0.3 5.2 -4.6 2.7 -16 3.3 -22.8 1.1z"/>
  <path d="M463.1 361.4 c-3.4 -7.2 -5.1 -15.3 -5.2 -24.2 0 -8.6 1.2 -14.2 4.1 -17.9 2.2 -2.8 3.5 -1.8 5 3.7 1.3 4.9 7 16.2 9.9 19.7 1.1 1.3 4.3 3.8 7.1 5.7 l5.2 3.5 -5.2 2.6 c-2.8 1.4 -8.2 4.6 -12 7 l-6.8 4.4 -2.1 -4.5z"/>
  <path d="M462.2 297.1 c-1.1 -0.7 -1.1 -0.9 0.2 -1.4 0.9 -0.4 1.5 -1.2 1.4 -1.9 -0.2 -0.6 0.5 -1.4 1.5 -1.6 2.1 -0.4 2.1 0.7 -0.1 3.5 -1.1 1.5 -2.2 2 -3 1.4z"/>
  <path d="M496.9 251.7 c-9.2 -3.5 -14.7 -10.7 -15.6 -20.6 -1.1 -12.3 5.6 -22.9 17 -26.5 14 -4.4 26.6 2.8 30.3 17.4 2.1 8.1 0.8 15 -3.9 21.2 -6 7.8 -19 11.8 -27.8 8.5z"/>
  <path d="M454.3 897.3 c0.9 -0.2 2.5 -0.2 3.5 0 0.9 0.3 0.1 0.5 -1.8 0.5 -1.9 0 -2.7 -0.2 -1.7 -0.5z"/>
  <path d="M897.1 573.3 c0 -0.4 0.4 -1.7 0.9 -2.8 0.8 -1.9 0.9 -1.9 0.9 0.2 0.1 1.2 -0.3 2.5 -0.9 2.8 -0.5 0.3 -1 0.3 -0.9 -0.2z"/>
  <path d="M507.8 118.3 c1.2 -0.2 3 -0.2 4 0 0.9 0.3 -0.1 0.5 -2.3 0.4 -2.2 0 -3 -0.2 -1.7 -0.4z"/>
 </g>
 <g fill="#fff2d2">
  <path d="M485.5 878.4 c-18.1 -1.9 -33 -3.9 -44 -6 -37.1 -7.2 -78.1 -22.4 -110.8 -41.2 -5.9 -3.4 -10.9 -6.2 -11.2 -6.2 -1.1 0 -28.9 -20.1 -39.7 -28.7 -60.2 -48.2 -105.8 -118.9 -124.2 -192.8 -4.4 -17.8 -7 -31.4 -9.2 -49 -2.6 -20.1 -2.6 -70.3 -0.1 -90 13.1 -100.7 59.5 -182.8 139.6 -246.5 46.6 -37.1 107.4 -62.9 169.6 -72.1 22.8 -3.3 38.6 -4.2 65.5 -3.6 24.6 0.6 36.7 1.7 57 5.2 80.2 13.8 154.6 55.3 209.5 117 50.8 57 81.5 126.5 90.7 205 2 17.1 1.7 67.5 -0.5 85.5 -7.3 59.2 -27.2 112.9 -59.8 161 -55.4 81.9 -142.3 139.1 -238.4 156.9 -23.1 4.3 -33.6 5.2 -62 5.6 -15.4 0.1 -29.8 0.1 -32 -0.1z m64 -17 c80.8 -8.7 154.6 -44.1 212.1 -101.8 24.1 -24.2 43.7 -49.8 57.6 -75.1 23.9 -43.5 37.1 -83.3 43.5 -131.2 2.4 -18.1 2.4 -66.5 0 -84.8 -8.7 -65.2 -31.5 -122 -69 -172 -15.2 -20.1 -40.3 -46 -60.2 -61.8 -18.8 -15.1 -45 -31.9 -61 -39.3 -3.3 -1.5 -10 -4.6 -15 -7 -31 -14.7 -76.1 -26.1 -116.4 -29.5 -17.4 -1.4 -57.5 -0.6 -73.7 1.5 -30 4 -60.5 11.7 -87.9 22.3 -14.2 5.4 -41.8 19.4 -55.5 28 -44.5 27.9 -84.2 68 -112.9 113.8 -6.7 10.7 -24.1 44.8 -24.1 47.1 0 0.8 -0.6 2.5 -1.4 3.7 -2.6 4.1 -10.6 27.7 -14.6 43 -21.8 84.2 -13.1 172.6 24.5 249.2 23.5 47.9 62.2 93.7 107.5 127.2 71.2 52.6 158.2 76.2 246.5 66.7z"/>
  <path d="M473 832.4 c-3.6 -0.7 -8 -1.3 -9.8 -1.4 -3.8 0 -4.6 -1.5 -5.7 -10.7 l-0.7 -6.1 -7.6 -1.7 c-4.3 -0.9 -11.5 -2.5 -16.2 -3.5 -4.6 -1 -8.5 -1.8 -8.6 -1.7 -0.1 0.1 -2.1 3.3 -4.4 7 -4 6.4 -4.5 6.9 -7.2 6.3 -6.6 -1.3 -19.7 -5.9 -19.2 -6.7 0.2 -0.5 5.9 -8.6 12.6 -18.1 6.6 -9.5 18 -25.8 25.1 -36.3 7.2 -10.4 13.1 -19.1 13.2 -19.3 0.2 -0.2 4.2 0.7 20.2 4.3 1.6 0.4 2.3 1.5 2.8 4.7 0.4 2.4 3.8 22.2 7.6 44.1 3.8 21.8 6.9 39.9 6.9 40.2 0 0.7 -1.3 0.5 -9 -1.1z m-18.4 -38.1 c-0.3 -1 -1 -6.3 -1.7 -11.8 -0.7 -5.5 -1.6 -10.4 -2.1 -10.9 -0.4 -0.6 -0.8 -2.1 -0.8 -3.5 0 -1.8 -2.1 0.9 -7.5 9.8 -4.1 6.7 -7.5 12.6 -7.5 12.9 0 0.6 14.2 4.3 19.3 5.1 0.5 0 0.6 -0.7 0.3 -1.6z"/>
  <path d="M512.7 809.9 c-0.4 -13.3 -0.7 -28.4 -0.7 -33.5 l0 -9.3 -10.2 -0.3 -10.2 -0.3 -0.3 -9 -0.4 -9 25.8 0 c14.2 -0.1 27.7 -0.4 30 -0.8 l4.2 -0.7 0.3 8.7 c0.2 5.1 -0.1 9.1 -0.7 9.5 -0.5 0.4 -3 0.8 -5.6 0.8 -2.5 0 -5.7 0.5 -7.1 1.2 -2.4 1.2 -2.5 1.6 -3.2 13.9 -0.3 7 -0.3 21.5 0.1 32.3 l0.6 19.6 -8.9 0 c-4.9 0 -9.8 0.3 -11 0.6 -2.1 0.5 -2.1 0.3 -2.7 -23.7z"/>
  <path d="M589.6 824.1 c-0.1 -0.3 -2.9 -11 -6.2 -23.8 -3.2 -12.7 -6.1 -23 -6.5 -22.8 -0.3 0.3 -0.4 -0.7 -0.1 -2.2 0.3 -1.5 0.1 -2.3 -0.4 -2 -0.6 0.3 -1 -0.6 -1 -2.1 -0.1 -1.5 -1.5 -8.3 -3.3 -15.1 -1.7 -6.8 -3.1 -12.4 -2.9 -12.5 0.2 -0.2 4.1 -1.2 8.8 -2.4 4.7 -1.1 9.2 -2.3 10.1 -2.7 1.3 -0.5 2.6 3.4 7.8 23.2 3.5 13.1 8.3 31.2 10.7 40.2 2.4 9.1 4.3 16.5 4.1 16.6 -1 0.9 -20.8 6.1 -21.1 5.6z"/>
  <path d="M629.2 770 c-11.7 -18.7 -21.5 -34.6 -21.8 -35.3 -0.3 -0.8 2.4 -3.1 7 -6.1 l7.5 -4.7 4.3 1.5 c24.8 8.5 47.8 16.6 50.1 17.5 1.5 0.6 2.7 0.8 2.7 0.5 0 -0.2 -4.2 -6.9 -9.3 -14.7 -13 -20 -16 -24.7 -15.6 -25 0.2 -0.1 3.8 -2.6 8 -5.4 4.2 -2.9 8.1 -5.3 8.7 -5.5 0.5 -0.2 8.5 11.2 17.7 25.2 9.1 14 19.2 29.3 22.4 34.1 l5.8 8.5 -7.7 5.6 -7.8 5.7 -3.8 -1.4 c-19 -6.6 -47.3 -16.3 -49 -16.7 -3.9 -1 -2 3.3 9.4 20.9 l11 17.1 -7.8 5.6 c-4.4 3.1 -8.5 5.8 -9.2 6.1 -0.9 0.3 -8.6 -11.1 -22.6 -33.5z"/>
  <path d="M347.8 790.9 c-11.6 -2.7 -24.8 -13.1 -29.9 -23.4 -12.1 -24.7 0.5 -53.2 26.6 -60 30.2 -7.8 58.5 12.5 58.5 42.1 0 23.9 -19.4 42.6 -43.9 42.3 -4.2 -0.1 -9.3 -0.5 -11.3 -1z m19.7 -21.3 c8.8 -4.2 13.5 -11.2 13.5 -20.3 0 -7.5 -1.8 -12.1 -6.3 -16.7 -15.5 -15.4 -41.7 -2.1 -39.4 20 1.6 15.1 18 23.7 32.2 17z"/>
  <path d="M277.2 728 c-13.4 -4.8 -25 -14.9 -30.2 -26.1 -2.6 -5.8 -3.4 -8.8 -3.8 -15.8 -1 -18.9 7.2 -33.4 23.4 -41.2 12.3 -5.9 28.6 -5.2 41.7 1.9 5.6 3 13.7 11.2 16.6 17 2.8 5.5 5.1 15.4 5.1 22.3 l0 5.6 -7.2 0.7 c-4 0.4 -8.9 0.9 -10.8 1.2 l-3.5 0.6 0 -9.5 c0 -9 -0.2 -9.8 -3 -13.9 -1.7 -2.5 -4.9 -5.3 -7.5 -6.6 -3.8 -2 -5.6 -2.3 -11.8 -1.9 -8.8 0.5 -14 3.6 -18.6 11.1 -9.1 14.6 0.4 33.3 18.3 36.2 3.4 0.5 4.1 1 3.5 2.3 -0.3 0.9 -1.4 5.3 -2.3 9.8 -1.8 9.3 -1.7 9.3 -9.9 6.3z"/>
  <path d="M729 718.9 c-6.9 -1.3 -14.9 -5.9 -21.1 -11.9 -14.4 -14.1 -16.9 -34 -6.6 -53.4 5.8 -11.2 19.1 -22 29.3 -23.9 l3.2 -0.6 2.7 8.6 c1.4 4.7 2.4 9.1 2.2 9.7 -0.3 0.7 -2.3 1.8 -4.5 2.4 -2.1 0.7 -6.1 3.1 -8.7 5.4 -13.9 12.3 -12.2 31.6 3.5 40.2 7.2 3.9 13.8 3.9 20.9 0 6 -3.2 9.2 -6.6 12.7 -13.5 4.3 -8.6 2.3 -13.5 -3.2 -7.7 -5.2 5.4 -5.7 5.4 -13.4 -0.3 -3.8 -2.8 -7 -5.4 -7 -5.9 0 -0.6 14 -18.9 17 -22.3 0.7 -0.8 8.1 4.8 26.4 19.6 l3.9 3.2 -2.2 8 c-3.7 13.2 -7.5 20.1 -16.1 28.7 -12.3 12.3 -24.4 16.6 -39 13.7z"/>
  <path d="M542.2 667.8 c-0.8 -3.2 -6.4 -13.8 -8.7 -16.7 -6.4 -7.8 -12.9 -14.6 -18.3 -19.2 -3.4 -2.9 -6.2 -5.6 -6.2 -6.1 0 -2.2 20 17.1 24.7 23.9 3.5 5.1 3.7 5.3 4.9 3.2 1.4 -2.8 1.9 -1.9 3.3 6.6 0.7 3.9 1.4 7.8 1.6 8.8 0.5 2.5 -0.6 2.1 -1.3 -0.5z"/>
  <path d="M395.6 652.4 c-7.2 -2.5 -16.2 -4.9 -20 -5.5 -3.9 -0.6 -9.1 -2.2 -11.6 -3.5 -17 -9.4 -34.2 -15.3 -44.4 -15.4 l-4.1 -0.1 3 -2.5 c14.4 -12.3 35 -20.3 52.6 -20.4 7.5 0 21.6 2.5 30.3 5.4 8.8 3 23.1 9.4 22.4 10.1 -0.3 0.3 -4.5 0.1 -9.4 -0.5 -9.6 -1.2 -27.9 -0.1 -40.4 2.3 l-6.5 1.3 4 1.3 c4.7 1.6 14 7 21.1 12.3 5.2 3.9 17.4 17.1 17.4 18.9 0 1.2 0.3 1.3 -14.4 -3.7z"/>
  <path d="M652.4 652.1 c4.6 -13 4.7 -39.6 0.1 -56.1 -8.5 -31 -25.5 -51.4 -66 -79.5 -15.4 -10.7 -23.6 -21.2 -25.3 -32.1 -1.5 -9.6 1.2 -15.3 9.4 -19.4 4.7 -2.4 6 -2.5 29.4 -3.1 13.5 -0.4 27.4 -1.2 30.9 -1.9 24.5 -4.5 46.1 -20.8 48.7 -36.8 0.6 -3.9 0.4 -4.4 -3.2 -8 -2.7 -2.7 -6.6 -4.9 -12.4 -7.1 -26.7 -10.3 -38.1 -18.7 -64.8 -47.8 -15.2 -16.6 -30.8 -27.3 -47.7 -32.8 l-8.5 -2.8 0 -6.1 c0 -5.3 -3.2 -21.2 -5.5 -27.1 -0.4 -1.1 2.2 1 5.8 4.6 6.9 7 8 7.6 24.2 12.4 60.4 18 103.8 53.9 130.2 107.9 14.1 28.9 20.5 57.9 20.5 92.1 -0.1 47.2 -16.8 92.6 -47.7 129.4 -7.4 8.8 -16.9 18.1 -18.6 18.1 -0.4 0 -0.2 -1.7 0.5 -3.9z"/>
  <path d="M504.9 623.4 c-1.3 -1.4 -1.7 -2.3 -0.9 -1.9 1.3 0.5 4.6 4.5 3.7 4.5 -0.2 0 -1.4 -1.1 -2.8 -2.6z"/>
  <path d="M524 621.5 c-1.7 -2.5 -2.9 -4.5 -2.7 -4.5 0.3 0 2.1 2 4.1 4.5 2.1 2.5 3.3 4.5 2.7 4.5 -0.5 0 -2.4 -2 -4.1 -4.5z"/>
  <path d="M489.5 610.9 c-20.3 -16.2 -32.9 -29.1 -36.3 -37.1 -1.8 -4.4 -0.7 -3.3 2.6 2.5 2.4 4.1 14 16.7 21.6 23.2 5.1 4.4 13.9 11.7 18.5 15.3 3 2.3 5 4.2 4.5 4.2 -0.5 -0.1 -5.4 -3.7 -10.9 -8.1z"/>
  <path d="M511.6 604.3 c-3.2 -5.2 -4.4 -6.2 -10.1 -8.7 -5.2 -2.3 -8 -4.4 -13.9 -10.8 -13.5 -14.5 -19.9 -32.5 -19.7 -55.5 0.2 -26.2 8.7 -48.2 28.3 -73.1 2.8 -3.4 5.8 -6.8 6.7 -7.5 4.1 -2.9 2.7 -3.4 -3.1 -1 -8.9 3.5 -17.8 8.7 -26.9 15.4 -7.9 5.9 -14.4 14 -20.1 25.4 -3.4 6.7 -7.7 20.5 -8.8 28.5 l-0.9 6.5 0.4 -7.5 c1.2 -24.1 23.5 -57.3 50.3 -75 16.3 -10.8 32 -16.4 49.6 -17.6 12.5 -0.9 24.2 0.8 47.9 6.7 18.7 4.7 21.3 5.1 35.2 5.6 11.4 0.3 16.3 0.1 20.5 -1.1 3 -0.8 5.9 -1.1 6.4 -0.6 1.1 1.1 -6.3 6.5 -14 10.1 -3.3 1.6 -9.5 3.7 -13.7 4.6 -6.9 1.5 -9.5 1.5 -26.5 0.3 -27.6 -1.9 -38.7 -0.6 -53.1 6.1 -23.4 10.8 -42.7 36.4 -48.6 64.4 -2.3 10.5 -2.3 31.9 -0.1 43.7 2.8 14.8 10.2 33.8 16.8 43.1 1.1 1.6 1.8 3 1.5 3.3 -0.3 0.3 -2.1 -2.1 -4.1 -5.3z"/>
  <path d="M317.2 590.3 c-12.5 -26.6 -17.6 -50.1 -17.6 -82.3 0.1 -33.1 6.1 -59.7 20.3 -89.5 20.1 -42.1 53.8 -77.1 96.5 -100 7.2 -3.9 8.7 -4.4 8.3 -2.9 -3.5 12.1 -4.1 34.5 -1.3 47.3 l1.6 7.4 -11.8 12.1 c-37.5 38.3 -55.1 80.5 -52.8 126.6 1.6 31.3 10.2 54.9 26.4 72.2 3.7 3.9 5.8 6.8 4.7 6.4 -1.1 -0.4 -8.1 -0.7 -15.6 -0.7 -17.6 0.1 -31.6 2.9 -46.1 9.2 -3.6 1.6 -7 2.9 -7.6 2.9 -0.5 0 -2.7 -3.9 -5 -8.7z"/>
  <path d="M445.6 552.5 c-0.9 -3.5 -1.6 -7.2 -1.5 -8.2 0 -1 0.8 1.4 1.8 5.2 0.9 3.9 2 7.6 2.5 8.3 0.4 0.6 0.3 1.2 -0.2 1.2 -0.5 0 -1.7 -2.9 -2.6 -6.5z"/>
  <path d="M443.2 537 c0 -1.9 0.2 -2.7 0.5 -1.7 0.2 0.9 0.2 2.5 0 3.5 -0.3 0.9 -0.5 0.1 -0.5 -1.8z"/>
  <path d="M644 307 c-6.6 -2.1 -21.4 -8 -22 -8.7 -0.4 -0.4 -1.9 -6.9 -3.5 -14.3 -1.6 -7.4 -3.3 -14 -3.8 -14.7 -0.5 -0.7 -0.5 -1.8 -0.1 -2.5 0.6 -1 0.4 -1 -0.7 -0.2 -0.8 0.6 -6.9 5 -13.6 9.8 l-12.2 8.8 -11.9 -4.9 c-6.5 -2.6 -12 -5.2 -12.3 -5.8 -0.3 -0.8 34.3 -26.5 41 -30.4 1.1 -0.7 0.3 -5.5 -4.3 -26.6 -3.1 -14.1 -5.6 -26.1 -5.4 -26.5 0.4 -0.9 27 8.7 27.9 10.1 0.7 1.3 5.4 28.1 5.1 29.3 -0.2 0.5 1.2 -0.2 3 -1.6 11.9 -8.9 23.1 -16 24.6 -15.5 0.9 0.3 6.6 2.5 12.5 5 l10.9 4.5 -3.4 2.5 c-1.8 1.3 -11.4 8.2 -21.3 15.2 -9.9 7 -18 13.2 -17.9 13.9 0.1 1.4 10.2 48.3 11 51.4 0.7 2.4 0.3 2.5 -3.6 1.2z"/>
  <path d="M382.2 304.8 c-0.7 -0.7 -1.2 -1.5 -1.2 -1.9 0 -0.7 -17.1 -38.9 -24.3 -54.4 -1.9 -3.8 -5.2 -11.2 -7.5 -16.3 l-4.1 -9.3 12.7 -6 c15.9 -7.6 49.9 -21.2 51 -20.5 1 0.6 8.7 17.5 8.1 17.9 -0.2 0.1 -8.7 3.6 -18.9 7.6 -10.2 4.1 -19 7.8 -19.7 8.3 -0.8 0.7 -0.2 2.9 2.4 8.6 1.9 4.2 3.6 7.9 3.9 8.1 0.2 0.2 4.7 -1.5 10.1 -3.9 27.2 -11.8 25.3 -11.1 26 -9.2 0.3 0.9 2.1 5.3 4 9.6 1.9 4.4 3 8.2 2.6 8.6 -0.4 0.4 -8 3.7 -16.8 7.5 -8.8 3.8 -16.2 7 -16.4 7.2 -0.2 0.1 2.4 6.2 5.8 13.6 3.3 7.3 6.1 13.6 6.1 14 0 0.6 -21.2 11.7 -22.3 11.7 -0.2 0 -0.8 -0.5 -1.5 -1.2z"/>
  <path d="M491.3 273.9 c-13.2 -2.6 -27 -13.3 -33.1 -25.8 -3.6 -7.5 -3.7 -7.8 -3.7 -19.6 0 -12 0 -12.2 3.8 -19.7 13.1 -26.7 46.2 -36.3 74.7 -21.8 6.7 3.4 15.6 12.9 19 20.2 6.3 13.5 5.6 30.6 -1.7 43 -7 11.8 -17.7 19.8 -31 23.2 -6.5 1.7 -20.8 2 -28 0.5z m25.5 -24.1 c6 -3.1 10.7 -9.3 12.2 -16.1 1 -4.4 1 -6.3 -0.4 -11.7 -3.7 -14.6 -16.3 -21.8 -30.3 -17.4 -22.3 7 -23.2 38.9 -1.4 47.1 5.1 1.9 14.2 1 19.9 -1.9z"/>
 </g>
 <g fill="#f4902e">
  <path d="M501 720.1 c0 -1.3 0.6 -1.3 15.5 -1.6 12.9 -0.2 21.5 -1.3 21.5 -2.7 0 -0.6 1.1 -0.8 2.5 -0.6 1.6 0.4 2.9 0 3.4 -0.9 0.4 -0.8 1 -1.4 1.2 -1.3 0.5 0.2 1.9 -0.2 7.2 -2 2.1 -0.6 4.1 -1 4.4 -0.7 0.2 0.3 1.3 -0.2 2.4 -1.1 1 -0.9 3.1 -1.6 4.6 -1.7 2.6 0 3.3 -1.1 9 -12.5 6.5 -12.8 10.3 -23.1 12.4 -33.5 1.7 -8.5 1.4 -30.5 -0.6 -38.8 -3.6 -15.5 -13.1 -32.5 -23.3 -41.8 -6.8 -6.3 -10.3 -9.1 -10.7 -8.7 -0.2 0.2 0.3 3.2 1 6.8 1.3 6.1 2.5 16.1 4.1 35.5 l0.6 7.9 -3.4 -4.4 c-1.9 -2.5 -7.2 -9.2 -11.7 -15 -4.6 -5.8 -9.8 -13.6 -11.7 -17.5 -7.3 -15.1 -9.4 -33.9 -5.5 -48.1 3.2 -11.3 7.5 -22.6 8.1 -20.9 0.7 1.9 10.8 8.8 17 11.6 2.5 1.2 10.3 4.3 17.4 7 12.1 4.6 16.9 6 13.6 3.9 -0.8 -0.5 -1.2 -1.2 -0.8 -1.5 1.2 -1.2 13.6 8.3 23.3 18 20 19.9 28.5 41.4 27.2 68.7 -1.1 24.9 -11.3 46.1 -30.5 63.9 -7.5 6.9 -21 16.1 -27.5 18.6 -2.3 0.9 -4.6 1.9 -5.2 2.3 -2 1.5 -16.3 6.2 -26 8.6 -11.5 2.9 -39.5 4.7 -39.5 2.5z"/>
  <path d="M481 717.5 c-10.7 -2.2 -23.7 -6.1 -27.6 -8.3 -1.1 -0.6 -1.3 -1.1 -0.5 -1.6 0.6 -0.4 1.1 -0.2 1.1 0.4 0 0.7 0.7 1 1.5 0.6 1.8 -0.6 7.5 1.2 7.5 2.5 0 0.6 0.6 0.9 1.3 0.8 1.4 -0.3 8.8 1.1 10.2 1.9 0.5 0.3 2.1 0.6 3.5 0.7 1.4 0.1 3.5 0.7 4.8 1.4 1.2 0.6 2.7 0.9 3.3 0.6 0.5 -0.4 1.5 -0.2 2.2 0.3 0.7 0.6 2.3 1 3.7 1.1 5.7 0 7.9 0.4 7.4 1.2 -0.8 1.4 -5.9 0.9 -18.4 -1.6z"/>
  <path d="M440.4 703.6 c-1 -0.8 -1.6 -1.7 -1.2 -2.1 0.8 -0.8 4.8 1.3 4.8 2.5 0 1.4 -1.3 1.2 -3.6 -0.4z"/>
  <path d="M434.3 700.8 c-1.3 -0.6 -2.3 -1.8 -2.3 -2.7 0 -1.4 0.2 -1.4 1 -0.1 0.5 0.8 1 1.1 1 0.7 0 -1.1 4 1.2 4 2.3 0 1.2 -0.9 1.2 -3.7 -0.2z"/>
  <path d="M412 686.3 c-2.5 -1.9 -5.6 -4.3 -6.8 -5.4 -1.3 -1 -2.2 -2.3 -2 -2.9 0.2 -0.7 2.6 1 5.3 3.6 2.8 2.6 5.3 4.8 5.7 4.8 1.1 0.1 3.2 2.5 2.7 3 -0.3 0.3 -2.5 -1.1 -4.9 -3.1z"/>
  <path d="M446 686.6 c-17.2 -7.5 -27.4 -13.4 -41.8 -24.3 -8.3 -6.4 -8.7 -6.6 -14.1 -6.4 -6.4 0.2 -6.9 0.5 -5.3 3.1 2.3 3.7 1.2 3.3 -4 -1.6 -2.9 -2.8 -7 -6.3 -9.1 -7.8 -2.1 -1.6 -3.5 -3.1 -3.2 -3.5 0.3 -0.3 1 0.1 1.5 0.9 0.6 0.8 1 1.1 1 0.6 0 -0.5 0.7 -0.3 1.5 0.4 0.8 0.7 2.1 1 2.9 0.7 1.5 -0.6 12.1 2 19.5 4.7 2.4 0.9 4.8 1.3 5.3 1 0.6 -0.4 1.4 -0.1 1.9 0.7 0.4 0.7 2.4 1.4 4.3 1.5 2.8 0.1 3.5 -0.3 3.3 -1.6 -0.4 -2.5 -3.7 -7.1 -4.6 -6.5 -0.5 0.2 -1.4 -0.2 -2.1 -1 -0.7 -0.8 -0.9 -1.5 -0.4 -1.5 0.4 0 -0.9 -1.8 -3.1 -4 -2.1 -2.1 -4.2 -3.7 -4.6 -3.4 -0.4 0.2 -1.1 -0.1 -1.5 -0.7 -0.5 -0.8 -0.2 -1 0.7 -0.5 0.8 0.4 0.5 0.1 -0.5 -0.8 -1 -0.8 -2.2 -1.3 -2.7 -1.1 -0.4 0.3 -1.1 0 -1.5 -0.6 -0.5 -0.8 -0.2 -1 0.7 -0.5 0.8 0.4 0.3 -0.2 -1.1 -1.3 -1.4 -1.1 -3 -1.9 -3.7 -1.6 -0.7 0.2 -1.5 -0.1 -1.9 -0.7 -0.5 -0.7 -0.2 -0.8 0.7 -0.4 0.8 0.4 0.5 0 -0.6 -0.8 -1.1 -0.9 -2.5 -1.4 -3.3 -1.1 -0.7 0.2 -1 0 -0.7 -0.5 0.3 -0.5 -0.5 -1.5 -1.9 -2.1 -3.2 -1.5 -2.4 -2.9 1.7 -3 2.7 0 2.9 -0.2 1.2 -0.9 -1.4 -0.6 -0.6 -0.7 2.5 -0.4 2.9 0.4 4 0.2 3.2 -0.4 -3.4 -2.4 34 -2 38 0.4 0.4 0.3 1.7 0.7 2.8 0.9 3.3 0.6 25.8 16.8 34.5 24.8 12.2 11.2 22 18.4 30.9 22.7 11 5.2 17.5 7 28.1 7.6 7.4 0.5 10 0.3 14.8 -1.3 3.1 -1.1 5.7 -1.9 5.7 -1.7 0 0.9 -4.9 2.7 -13.7 5.1 -8.7 2.4 -11.5 2.7 -24.8 2.7 -13.2 -0.1 -16.1 -0.4 -24 -2.8 -8.4 -2.4 -39.8 -17.3 -47.3 -22.3 -1.8 -1.3 -3.5 -2.3 -3.8 -2.3 -1.4 0 21.6 29.3 26.1 33.2 2.8 2.5 1.1 2.1 -7.5 -1.6z"/>
  <path d="M394.6 670.9 c-2.5 -2.8 -4.6 -5.6 -4.6 -6.2 0 -0.6 0.1 -0.8 0.3 -0.6 0.2 0.2 2.5 2.8 5.2 5.7 2.6 2.9 4.6 5.5 4.3 5.8 -0.3 0.2 -2.6 -1.8 -5.2 -4.7z"/>
  <path d="M435.8 555.9 c-3.1 -4.6 -7.2 -11.6 -9.2 -15.6 -4.8 -9.7 -9.5 -26.6 -10 -36.7 -0.3 -4.4 -0.3 -6.7 0 -5.1 1.6 11.6 2.8 17.7 4.4 22.1 1.1 2.9 1.7 5.4 1.4 5.6 -0.5 0.5 1.6 5.6 6.2 15.4 2.5 5.3 7.2 13 9.9 16.1 0.5 0.7 1.6 1.9 2.3 2.8 0.7 0.9 1.2 2.1 1 2.7 -0.3 0.7 -2.9 -2.6 -6 -7.3z"/>
  <path d="M510 553 c-0.8 -0.5 -1.1 -1 -0.6 -1 0.5 0 0.2 -0.7 -0.5 -1.7 -1.3 -1.5 -1.2 -1.5 0.8 -0.2 2.3 1.4 3.9 3.9 2.5 3.9 -0.4 0 -1.4 -0.5 -2.2 -1z"/>
  <path d="M497.3 544 c0 -2.5 0.2 -3.5 0.4 -2.2 0.2 1.2 0.2 3.2 0 4.5 -0.2 1.2 -0.4 0.2 -0.4 -2.3z"/>
  <path d="M438 540 c0 -0.5 0.7 -1 1.5 -1 0.8 0 1.5 0.5 1.5 1 0 0.6 -0.7 1 -1.5 1 -0.8 0 -1.5 -0.4 -1.5 -1z"/>
  <path d="M466.3 529.5 c0 -2.2 0.2 -3 0.4 -1.7 0.2 1.2 0.2 3 0 4 -0.3 0.9 -0.5 -0.1 -0.4 -2.3z"/>
  <path d="M568.7 530.1 c-3.4 -2.2 -4.3 -3.1 -3.1 -3.1 0.5 0 2.3 1.1 3.9 2.5 3.5 2.8 3.2 3.1 -0.8 0.6z"/>
  <path d="M501 527.5 c0.1 -1.6 3.9 -8.2 4 -6.8 0 0.7 -0.9 2.7 -2 4.5 -1.1 1.8 -2 2.9 -2 2.3z"/>
  <path d="M558.3 522.5 c-2.3 -1.9 -4.7 -3.5 -5.5 -3.5 -0.7 0 -2.6 -1.4 -4.3 -3.1 -2.6 -2.7 -3 -2.8 -3.6 -1.2 -0.4 1.1 -0.7 0.3 -0.7 -2.2 0 -2.1 -0.5 -4.1 -1.1 -4.3 -0.6 -0.2 -1.1 -0.9 -1.1 -1.5 0 -0.7 -0.9 -1.8 -2 -2.5 -1.2 -0.7 -1.8 -1.7 -1.5 -2.2 0.3 -0.6 0.1 -1 -0.5 -1 -0.6 0 -0.8 -0.5 -0.5 -1 0.3 -0.6 -0.1 -1.3 -0.9 -1.6 -0.9 -0.3 -1.3 -1 -1 -1.5 0.3 -0.5 0.1 -0.9 -0.5 -0.9 -0.6 0 -0.8 -0.7 -0.5 -1.5 0.4 -0.8 0.1 -1.5 -0.6 -1.5 -0.6 0 -0.8 -0.4 -0.5 -1 0.4 -0.6 -0.5 -1 -1.9 -1 -1.6 0 -4.2 1.4 -6.6 3.6 -2.2 2 -4 3.1 -4 2.5 0 -1.2 11.6 -10.1 13.3 -10.1 0.6 0 0.8 0.3 0.5 0.6 -0.9 0.8 2.1 9.4 4.5 12.9 4.1 6.1 11.2 13.8 17.9 19.6 3.8 3.2 6.5 5.9 6 5.9 -0.5 0 -2.7 -1.6 -4.9 -3.5z"/>
  <path d="M437.7 519.8 c-1.9 -6.3 -3.3 -13.4 -4.7 -24.7 -1.7 -13.1 1 -34.3 6.3 -48.6 4.7 -12.7 15.1 -29.7 22.6 -37 6.9 -6.6 5.8 -6.7 -10.9 -1 -5.3 1.8 -11.8 4.4 -14.6 5.8 -6.8 3.5 -20.7 13.9 -23.5 17.6 -1.3 1.7 -2.9 3.1 -3.6 3.1 -2.1 0 -5.7 8.1 -10.8 24.7 -0.7 2.1 2.1 0.3 4.4 -2.7 2.2 -3 5.8 -4.2 4.8 -1.6 -0.7 1.7 -12.6 18.6 -13.2 18.6 -1.5 0 3.8 -19.7 8.2 -30.5 9.4 -22.8 20.2 -38.4 39.6 -57.7 l9.8 -9.7 -4 -8.3 c-6.2 -13 -7.5 -19 -7.5 -36.3 -0.1 -9.6 0.4 -16.8 1.3 -20 2.8 -10.5 4.5 -15 5.9 -16.1 0.9 -0.7 1.3 -1.8 0.9 -2.8 -0.5 -1.1 -0.3 -1.5 0.5 -1 0.8 0.5 0.9 0.2 0.5 -1 -0.5 -1.1 -0.3 -1.5 0.5 -1 0.8 0.5 0.9 0.2 0.5 -1 -0.5 -1.1 -0.3 -1.5 0.5 -1 0.8 0.5 0.9 0.2 0.5 -1 -0.5 -1.1 -0.3 -1.5 0.5 -1 0.8 0.5 0.9 0.2 0.5 -1 -0.4 -1 -0.3 -1.5 0.3 -1.1 0.9 0.6 1.4 -0.8 1.1 -2.8 -0.1 -0.5 0.2 -0.6 0.6 -0.4 1 0.6 3.4 -1.9 2.6 -2.7 -0.4 -0.3 -0.1 -0.6 0.6 -0.6 0.7 0 5.4 4.2 10.5 9.3 9 8.9 15.7 17.4 30.5 38.4 7.5 10.7 10.4 13 19 14.8 l3.5 0.7 -3.7 -4.3 c-3.2 -3.7 -4.7 -6.9 -3.2 -6.9 0.2 0 4.4 0.9 9.2 2 12.7 2.9 31.6 9.5 40.4 14.1 9.8 5.1 23.9 16.4 26.1 20.9 1 1.9 2.4 3.5 3 3.5 0.7 0 1.2 0.7 1 1.6 -0.1 0.8 1.3 2.8 3 4.5 2.8 2.4 3 2.5 1.3 0.4 -1.9 -2.5 -1.9 -2.5 0 -0.7 1.1 1 2 2.5 2 3.5 0 0.9 0.6 1.6 1.3 1.4 0.8 -0.1 1.1 0.1 0.8 0.6 -0.3 0.5 0.8 1.9 2.4 3.1 1.7 1.2 3 2.8 3 3.6 0 1.7 5 6.6 6.1 6 0.4 -0.3 1.3 0.3 2 1.3 1.3 1.6 1.2 1.6 -0.6 0.3 -1.1 -0.7 -0.7 -0.2 0.8 1.3 1.6 1.4 3.2 2.4 3.7 2.1 0.5 -0.3 1.2 0 1.6 0.6 0.5 0.8 0.2 1 -0.7 0.5 -0.8 -0.4 -0.3 0.2 1.1 1.3 1.4 1.1 3.1 1.9 3.8 1.6 0.7 -0.3 1.1 -0.1 0.8 0.4 -0.3 0.4 1.3 1.8 3.6 3.1 2.5 1.4 3.8 1.7 3.3 0.9 -0.7 -1.1 -0.6 -1.2 0.6 -0.3 0.8 0.7 4.9 2.7 9.2 4.5 4.3 1.8 7.4 3.5 7 3.8 -1.1 0.9 -3.3 4.9 -3.3 6.2 0 0.6 1.5 3.6 3.3 6.8 3.8 6.3 4 6 -4.6 6.1 -2.1 0 -3.6 0.4 -3.3 0.8 0.2 0.4 -0.5 0.9 -1.7 0.9 -1.2 0.1 -2.4 -0.2 -2.7 -0.7 -0.3 -0.5 -3.4 -0.4 -7.4 0.3 -5.5 0.9 -7 0.9 -7.4 -0.1 -0.2 -0.6 -1.7 -1.2 -3.3 -1.2 -1.7 0 -2.8 0.4 -2.5 0.8 0.8 1.3 -8.1 -0.3 -25.1 -4.5 -8.3 -2 -15 -4 -14.7 -4.4 1.1 -1.8 -12.1 -3.4 -28.7 -3.4 -15 0 -18 0.3 -19.5 1.6 -1.1 0.9 -4.6 2.4 -7.9 3.4 -19.7 5.6 -43.7 22.8 -57.8 41.5 -2.3 3 -5.9 7.5 -8 9.9 -2.1 2.5 -3.5 5.1 -3.2 5.8 0.3 0.9 0 1.1 -0.7 0.7 -0.8 -0.5 -0.9 -0.2 -0.5 1 0.5 1.1 0.3 1.5 -0.5 1 -0.8 -0.5 -0.9 -0.2 -0.5 1 0.4 0.9 0.3 1.4 -0.2 1.1 -1.2 -0.7 -2.4 3.1 -1.5 4.6 0.4 0.7 0.3 0.9 -0.3 0.6 -0.6 -0.4 -1 0.3 -1 1.7 0 1.3 -0.8 3.8 -1.7 5.6 -0.8 1.8 -1.3 3.7 -0.9 4.3 0.4 0.6 0.1 0.7 -0.7 0.2 -1 -0.6 -1.2 -0.1 -0.7 2.6 0.5 2.6 0.4 3 -0.4 1.9 -0.8 -1.1 -0.9 -0.4 -0.5 3 0.3 3.1 0.2 3.9 -0.4 2.5 -0.6 -1.5 -0.9 -0.7 -0.9 3.3 -0.1 2.8 -0.5 5.2 -1 5.2 -0.4 0 -1.5 -2.4 -2.4 -5.2z m148.8 -118.6 c5.4 -1.8 5.7 -2.4 3.5 -6.9 -1.1 -2.3 -2 -4.6 -2 -5.1 0 -0.6 -2.1 -3.3 -4.6 -6.1 -3.6 -4 -5.7 -5.4 -9.9 -6.6 -2.9 -0.9 -6.4 -1.4 -7.7 -1.1 -1.2 0.3 -4.1 0.8 -6.3 1.1 -5.8 0.8 -13.5 3.1 -19.6 6 l-5.4 2.5 6.5 0 c9.1 0 10.1 0.5 13.9 6 3.8 5.5 6.7 7.8 12.6 9.6 4.2 1.3 15.6 1.7 19 0.6z m-102.5 -46.7 l5.2 -2.6 -5.2 -3.5 c-2.8 -1.9 -6 -4.4 -7.1 -5.7 -2.9 -3.5 -8.6 -14.8 -9.9 -19.7 -1.5 -5.5 -2.8 -6.5 -5 -3.7 -6 7.7 -5.4 28.3 1.1 42.1 l2.1 4.5 6.8 -4.4 c3.8 -2.4 9.2 -5.6 12 -7z m-17 -61.8 c0 -0.5 -0.8 -0.7 -1.7 -0.5 -1 0.2 -1.7 1 -1.5 1.6 0.1 0.7 -0.5 1.5 -1.4 1.9 -1.3 0.5 -1.3 0.7 -0.2 1.4 1.2 0.8 4.7 -2.4 4.8 -4.4z"/>
  <path d="M508 514.4 c0 -2.4 9.5 -15.4 11.4 -15.4 0.5 0 -0.4 1.5 -2.1 3.3 -1.7 1.7 -4.5 5.5 -6.2 8.2 -1.7 2.8 -3.1 4.5 -3.1 3.9z"/>
  <path d="M416.6 481 c0.3 -5.8 1.4 -14.2 2.4 -18.8 2 -8.2 7.9 -24.6 8.7 -23.8 0.2 0.2 -0.7 3 -2.1 6.3 -3 7.1 -6.6 20.8 -7.2 27.7 -0.3 2.8 -0.9 8.3 -1.4 12.1 -0.8 6.2 -0.8 5.8 -0.4 -3.5z"/>
  <path d="M409.5 452 c0.4 -1.4 1.6 -3.2 2.6 -4.1 1 -0.9 1.7 -1.8 1.4 -2.1 -0.5 -0.5 2.6 -3.7 8.2 -8.2 2.6 -2.1 3.8 -3.6 3 -3.9 -0.7 -0.3 -0.5 -0.6 0.6 -0.6 3.7 -0.2 1.4 3.9 -6.9 12 -4.7 4.6 -8.8 8.6 -9.1 8.9 -0.3 0.3 -0.2 -0.6 0.2 -2z"/>
  <path d="M499.3 450.3 c-0.7 -0.2 -1.3 -0.9 -1.3 -1.4 0 -0.5 0.6 -0.9 1.3 -0.9 0.6 0 2.6 -0.7 4.2 -1.6 l3 -1.5 -2.9 3 c-1.7 1.7 -3 3.1 -3 3 -0.1 0 -0.7 -0.3 -1.3 -0.6z"/>
 </g>
 <g fill="#fcd697">
  <path d="M535.7 653.3 c0.5 -1.2 0.3 -1.4 -0.7 -0.8 -0.8 0.5 -1.1 0.4 -0.7 -0.2 0.8 -1.3 -2.2 -5.5 -3.4 -4.8 -0.5 0.3 -0.6 0 -0.4 -0.7 0.3 -0.8 -1.3 -3.1 -3.5 -5.3 -2.2 -2.1 -4 -3.5 -4 -3.1 0 0.5 -0.7 0.3 -1.5 -0.4 -0.8 -0.7 -1.3 -1.6 -1 -2 0.7 -1.2 -5.5 -6.1 -6.7 -5.4 -0.6 0.4 -0.8 0.3 -0.5 -0.3 0.4 -0.5 -0.5 -2 -1.8 -3.1 -1.4 -1.2 -2.5 -1.9 -2.5 -1.4 -0.1 0.4 -0.9 -0.3 -1.9 -1.5 -1.1 -1.3 -3.1 -2.7 -4.6 -3.3 -1.4 -0.5 -2.3 -1.4 -2 -2 0.3 -0.5 0.1 -1.1 -0.4 -1.1 -0.6 -0.1 -1.7 -0.2 -2.3 -0.3 -0.7 0 -1.3 -0.7 -1.3 -1.4 0 -1.5 -2.5 -3.3 -3.6 -2.6 -0.4 0.2 -1.1 -0.1 -1.5 -0.7 -0.5 -0.8 -0.3 -0.9 0.7 -0.4 1.1 0.6 1.1 0.5 0.3 -0.4 -0.6 -0.7 -1.9 -1.3 -2.8 -1.5 -0.9 -0.1 -1.5 -0.5 -1.4 -0.8 0.6 -1.1 -3.5 -4.8 -5.1 -4.6 -0.9 0.2 -1.6 -0.2 -1.6 -0.9 0 -1.8 -4.4 -5.5 -5.5 -4.8 -0.6 0.4 -0.9 0.1 -0.8 -0.6 0.2 -0.7 -0.4 -1.4 -1.2 -1.4 -0.8 0 -1.4 -0.6 -1.3 -1.1 0.2 -1.3 -12.5 -13.9 -14 -13.9 -0.7 0 -1.2 -0.9 -1.2 -2 0 -1.1 -0.6 -1.9 -1.3 -1.7 -0.8 0.1 -1.1 -0.2 -0.8 -0.7 0.9 -1.4 -0.5 -4.2 -1.7 -3.4 -0.6 0.4 -0.7 0.1 -0.3 -0.6 0.5 -0.7 0.1 -2 -0.7 -2.9 -1.2 -1.4 -2.8 -5 -3.2 -7.2 0 -0.3 -0.6 -1.5 -1.3 -2.7 -0.8 -1.4 -0.9 -2.3 -0.3 -2.3 0.6 0 0.8 -0.7 0.5 -1.5 -0.4 -0.8 -0.9 -1.3 -1.4 -1 -0.4 0.2 -0.5 -0.8 -0.3 -2.3 0.4 -2.1 0.2 -2.4 -0.6 -1.2 -0.8 1.1 -1 0.7 -0.5 -2 0.4 -2.6 0.3 -3.1 -0.5 -2 -0.8 1.1 -0.9 0.5 -0.6 -2.5 0.4 -3.1 0.3 -3.6 -0.5 -2 -0.7 1.5 -0.8 0.2 -0.4 -4.5 0.3 -4.3 0.2 -6 -0.4 -5.1 -0.7 1 -1 -1.7 -1 -8 0.1 -6.2 0.3 -8.4 0.8 -6.4 0.7 2.8 0.8 2.8 0.9 -1.1 0 -2.2 1.1 -7.6 2.2 -12 1.2 -4.3 2.2 -8.9 2.3 -10.1 0.1 -1.1 0.5 -1.9 1 -1.5 0.5 0.3 0.7 -0.5 0.4 -1.6 -0.4 -1.4 -0.2 -2 0.5 -1.5 0.7 0.4 0.8 0 0.4 -1.1 -0.5 -1.1 -0.3 -1.5 0.5 -1 0.8 0.5 0.9 0.2 0.5 -1 -0.5 -1.1 -0.3 -1.5 0.5 -1 0.8 0.5 0.9 0.2 0.5 -1 -0.5 -1.1 -0.3 -1.5 0.5 -1 0.8 0.5 0.9 0.2 0.5 -1 -0.5 -1.1 -0.3 -1.5 0.5 -1 0.8 0.5 0.9 0.2 0.5 -0.9 -0.4 -1 -0.2 -1.6 0.6 -1.4 0.7 0.1 1.1 -0.6 1.1 -1.5 -0.1 -1 0.2 -1.6 0.6 -1.3 1.1 0.7 6.2 -7.4 5.4 -8.7 -0.4 -0.6 -0.3 -0.8 0.4 -0.4 0.6 0.3 1.3 0.2 1.7 -0.4 1 -1.7 12.9 -10.5 12.1 -8.9 -0.4 0.7 0.1 0.4 1.2 -0.8 1.1 -1.2 2.2 -1.9 2.6 -1.6 0.3 0.4 0.6 0.1 0.6 -0.4 0 -1.1 8.4 -6.3 10.2 -6.3 0.5 0 1.6 -0.7 2.4 -1.5 1.7 -1.7 3.3 -1.9 5.3 -0.6 1.2 0.7 1.1 1.2 -0.1 3 -0.8 1.1 -1.8 1.8 -2.1 1.4 -0.4 -0.3 -0.7 0.1 -0.7 0.9 0 0.9 -0.7 1.8 -1.5 2.2 -0.8 0.3 -2 1.7 -2.5 3 -0.5 1.4 -2.5 4.8 -4.5 7.6 -6.6 9.4 -16.5 31.4 -16.5 36.7 0 0.7 -0.4 1.3 -1 1.3 -0.5 0 -0.7 0.7 -0.4 1.5 0.3 0.8 0.2 2 -0.2 2.7 -0.5 0.7 -0.7 2.3 -0.5 3.6 0.1 1.2 -0.1 2.2 -0.6 2.2 -0.5 0 -0.7 3.5 -0.6 7.8 0.1 5.5 -0.1 6.8 -0.6 4.7 l-0.9 -3 -0.1 3.5 c0 2 0.3 4 0.8 4.5 0.6 0.6 1.1 4.3 1.3 8.2 0.2 4 0.6 7.3 0.9 7.3 0.3 0 1.1 2.4 1.8 5.3 0.6 2.9 2.5 8.1 4.1 11.5 1.6 3.4 2.7 6.2 2.3 6.2 -0.8 0 6.2 8.6 12.1 14.9 3.4 3.6 7.4 6.4 12.2 8.7 4.8 2.2 7.4 4.1 8.2 5.9 0.7 1.4 1.6 2.4 2.1 2.1 0.5 -0.3 0.8 0.2 0.7 1.2 0 0.9 0.4 1.6 1 1.5 0.7 -0.1 1.1 0.3 1 1 0 0.7 0.3 1.3 0.7 1.4 1.4 0.3 8.2 9.7 8.2 11.3 0 0.8 0.5 1.5 1.2 1.5 0.6 0 1.5 0.4 2 0.9 0.5 0.5 0.3 0.6 -0.4 0.2 -2.5 -1.4 -1.3 1.4 1.2 3 2.5 1.6 6 6.4 3.6 5 -0.7 -0.5 -0.9 -0.1 -0.5 0.8 0.3 0.9 1 1.4 1.4 1.1 0.8 -0.5 2.6 3.3 2.2 4.8 -0.1 0.4 0.3 0.7 0.9 0.7 0.5 0 0.7 0.5 0.3 1.2 -0.4 0.6 0.1 1.7 1.1 2.4 1 0.7 1.8 2.6 1.9 4.3 0.1 1.6 0.4 2.7 0.9 2.4 1.1 -0.7 0.8 2 -0.6 4.2 -1.5 2.5 -3.9 3.1 -3 0.8z"/>
  <path d="M627.2 404.2 c-6.8 -4.1 -17.7 -12.9 -18.6 -15 -0.3 -0.8 2.2 1.2 5.6 4.3 3.5 3.1 9.3 7.5 13.1 9.7 5.7 3.4 7.6 4.8 6.5 4.8 -0.2 0 -3.1 -1.7 -6.6 -3.8z"/>
  <path d="M597.4 376 c-3.3 -3.9 -6.1 -7.6 -6.3 -8.3 -0.4 -1.5 0.1 -0.9 6 6.3 6.4 7.9 7.2 9 6.7 9 -0.3 0 -3.2 -3.2 -6.4 -7z"/>
  <path d="M447 295.3 c0.1 -1.9 8.7 -16.7 10 -17.1 1 -0.4 0.9 0.1 -0.4 1.4 -1.1 1 -3.5 5.1 -5.4 9.1 -3.2 6.8 -4.2 8.4 -4.2 6.6z"/>
 </g>
</svg>